<?xml version="1.0" encoding="UTF-8"?>
<svg xmlns="http://www.w3.org/2000/svg" xmlns:xlink="http://www.w3.org/1999/xlink"
     width="2848" height="600" viewBox="0 -600 2848 600">
<defs>
</defs>
<path d="M210,-20 L210,-520" stroke="grey" stroke-width="1" fill="none" />
<text x="160" y="-530" font-size="22" fill="grey" dy="0em">1000</text>
<path d="M410,-20 L410,-520" stroke="grey" stroke-width="1" fill="none" />
<text x="360" y="-530" font-size="22" fill="grey" dy="0em">2000</text>
<path d="M610,-20 L610,-520" stroke="grey" stroke-width="1" fill="none" />
<text x="560" y="-530" font-size="22" fill="grey" dy="0em">3000</text>
<path d="M810,-20 L810,-520" stroke="grey" stroke-width="1" fill="none" />
<text x="760" y="-530" font-size="22" fill="grey" dy="0em">4000</text>
<path d="M1010,-20 L1010,-520" stroke="grey" stroke-width="1" fill="none" />
<text x="960" y="-530" font-size="22" fill="grey" dy="0em">5000</text>
<path d="M1210,-20 L1210,-520" stroke="grey" stroke-width="1" fill="none" />
<text x="1160" y="-530" font-size="22" fill="grey" dy="0em">6000</text>
<path d="M1410,-20 L1410,-520" stroke="grey" stroke-width="1" fill="none" />
<text x="1360" y="-530" font-size="22" fill="grey" dy="0em">7000</text>
<path d="M1610,-20 L1610,-520" stroke="grey" stroke-width="1" fill="none" />
<text x="1560" y="-530" font-size="22" fill="grey" dy="0em">8000</text>
<path d="M1810,-20 L1810,-520" stroke="grey" stroke-width="1" fill="none" />
<text x="1760" y="-530" font-size="22" fill="grey" dy="0em">9000</text>
<path d="M2010,-20 L2010,-520" stroke="grey" stroke-width="1" fill="none" />
<text x="1960" y="-530" font-size="22" fill="grey" dy="0em">10000</text>
<path d="M2210,-20 L2210,-520" stroke="grey" stroke-width="1" fill="none" />
<text x="2160" y="-530" font-size="22" fill="grey" dy="0em">11000</text>
<path d="M2410,-20 L2410,-520" stroke="grey" stroke-width="1" fill="none" />
<text x="2360" y="-530" font-size="22" fill="grey" dy="0em">12000</text>
<path d="M2610,-20 L2610,-520" stroke="grey" stroke-width="1" fill="none" />
<text x="2560" y="-530" font-size="22" fill="grey" dy="0em">13000</text>
<path d="M2810,-20 L2810,-520" stroke="grey" stroke-width="1" fill="none" />
<text x="2760" y="-530" font-size="22" fill="grey" dy="0em">14000</text>
<text x="16.0" y="-460" font-size="38" fill="black" dy="0em">I-B: NC_017459.1@21 (1391076-1404737)</text>
<path d="M211.8,-400 L232.0,-400 L232.0,-350 L211.8,-350 L181.8,-375.0 L211.8,-400 Z" fill="#d3c9c1" fill-opacity="0.8" stroke="#d3c9c1" stroke-width="4" />
<text x="181.8" y="-410" font-size="20" fill="black" dy="0em">1278</text>
<path d="M633.0,-400 L722.8000000000001,-400 L752.8000000000001,-375.0 L722.8000000000001,-350 L633.0,-350 L633.0,-400 Z" fill="#dd1424" fill-opacity="0.8" stroke="#dd1424" stroke-width="4" />
<text x="633.0" y="-320" font-size="26" fill="black" dy="0em">Cas6</text>
<path d="M752.8000000000001,-400 L1131.8,-400 L1161.8,-375.0 L1131.8,-350 L752.8000000000001,-350 L752.8000000000001,-400 Z" fill="#efc050" fill-opacity="0.8" stroke="#efc050" stroke-width="4" />
<text x="752.8000000000001" y="-410" font-size="26" fill="black" dy="0em">Cas8b</text>
<path d="M1160.4,-400 L1334.8000000000002,-400 L1364.8000000000002,-375.0 L1334.8000000000002,-350 L1160.4,-350 L1160.4,-400 Z" fill="#efc050" fill-opacity="0.8" stroke="#efc050" stroke-width="4" />
<text x="1160.4" y="-320" font-size="26" fill="black" dy="0em">Cas7</text>
<path d="M1367.8000000000002,-400 L1503.8000000000002,-400 L1533.8000000000002,-375.0 L1503.8000000000002,-350 L1367.8000000000002,-350 L1367.8000000000002,-400 Z" fill="#efc050" fill-opacity="0.8" stroke="#efc050" stroke-width="4" />
<text x="1367.8000000000002" y="-410" font-size="26" fill="black" dy="0em">Cas5</text>
<path d="M1533.2,-400 L2047.2000000000003,-400 L2077.2000000000003,-375.0 L2047.2000000000003,-350 L1533.2,-350 L1533.2,-400 Z" fill="#efc050" fill-opacity="0.8" stroke="#efc050" stroke-width="4" />
<text x="1533.2" y="-320" font-size="26" fill="black" dy="0em">Cas3</text>
<path d="M2093.4,-400 L2156.2000000000003,-400 L2186.2000000000003,-375.0 L2156.2000000000003,-350 L2093.4,-350 L2093.4,-400 Z" fill="#5b5ea6" fill-opacity="0.8" stroke="#5b5ea6" stroke-width="4" />
<text x="2093.4" y="-410" font-size="26" fill="black" dy="0em">Cas4</text>
<path d="M2186.8,-400 L2355.8,-400 L2385.8,-375.0 L2355.8,-350 L2186.8,-350 L2186.8,-400 Z" fill="#5b5ea6" fill-opacity="0.8" stroke="#5b5ea6" stroke-width="4" />
<text x="2186.8" y="-320" font-size="26" fill="black" dy="0em">Cas1</text>
<path d="M2386.2000000000003,-400 L2408.2000000000003,-400 L2438.2000000000003,-375.0 L2408.2000000000003,-350 L2386.2000000000003,-350 L2386.2000000000003,-400 Z" fill="#5b5ea6" fill-opacity="0.8" stroke="#5b5ea6" stroke-width="4" />
<text x="2386.2000000000003" y="-410" font-size="26" fill="black" dy="0em">Cas2</text>
<path d="M10.2,-400 L291.2,-400 L291.2,-350 L10.2,-350 L10.2,-400 Z" fill="white" stroke="white" stroke-width="4" />
<path d="M10.2,-400 L16.73488372093023,-400 L16.73488372093023,-350 L10.2,-350 L10.2,-400 Z" fill="black" />
<path d="M16.73488372093023,-400 L23.269767441860463,-400 L23.269767441860463,-350 L16.73488372093023,-350 L16.73488372093023,-400 Z" fill="#f0f0f0" />
<path d="M23.269767441860463,-400 L29.804651162790694,-400 L29.804651162790694,-350 L23.269767441860463,-350 L23.269767441860463,-400 Z" fill="black" />
<path d="M29.804651162790694,-400 L36.33953488372093,-400 L36.33953488372093,-350 L29.804651162790694,-350 L29.804651162790694,-400 Z" fill="#f0f0f0" />
<path d="M36.33953488372093,-400 L42.87441860465116,-400 L42.87441860465116,-350 L36.33953488372093,-350 L36.33953488372093,-400 Z" fill="black" />
<path d="M42.87441860465116,-400 L49.40930232558139,-400 L49.40930232558139,-350 L42.87441860465116,-350 L42.87441860465116,-400 Z" fill="#f0f0f0" />
<path d="M49.40930232558139,-400 L55.944186046511625,-400 L55.944186046511625,-350 L49.40930232558139,-350 L49.40930232558139,-400 Z" fill="black" />
<path d="M55.944186046511625,-400 L62.47906976744186,-400 L62.47906976744186,-350 L55.944186046511625,-350 L55.944186046511625,-400 Z" fill="#f0f0f0" />
<path d="M62.47906976744186,-400 L69.0139534883721,-400 L69.0139534883721,-350 L62.47906976744186,-350 L62.47906976744186,-400 Z" fill="black" />
<path d="M69.0139534883721,-400 L75.54883720930233,-400 L75.54883720930233,-350 L69.0139534883721,-350 L69.0139534883721,-400 Z" fill="#f0f0f0" />
<path d="M75.54883720930233,-400 L82.08372093023257,-400 L82.08372093023257,-350 L75.54883720930233,-350 L75.54883720930233,-400 Z" fill="black" />
<path d="M82.08372093023257,-400 L88.61860465116281,-400 L88.61860465116281,-350 L82.08372093023257,-350 L82.08372093023257,-400 Z" fill="#f0f0f0" />
<path d="M88.61860465116281,-400 L95.15348837209305,-400 L95.15348837209305,-350 L88.61860465116281,-350 L88.61860465116281,-400 Z" fill="black" />
<path d="M95.15348837209305,-400 L101.68837209302329,-400 L101.68837209302329,-350 L95.15348837209305,-350 L95.15348837209305,-400 Z" fill="#f0f0f0" />
<path d="M101.68837209302329,-400 L108.22325581395353,-400 L108.22325581395353,-350 L101.68837209302329,-350 L101.68837209302329,-400 Z" fill="black" />
<path d="M108.22325581395353,-400 L114.75813953488377,-400 L114.75813953488377,-350 L108.22325581395353,-350 L108.22325581395353,-400 Z" fill="#f0f0f0" />
<path d="M114.75813953488377,-400 L121.293023255814,-400 L121.293023255814,-350 L114.75813953488377,-350 L114.75813953488377,-400 Z" fill="black" />
<path d="M121.293023255814,-400 L127.82790697674425,-400 L127.82790697674425,-350 L121.293023255814,-350 L121.293023255814,-400 Z" fill="#f0f0f0" />
<path d="M127.82790697674425,-400 L134.36279069767448,-400 L134.36279069767448,-350 L127.82790697674425,-350 L127.82790697674425,-400 Z" fill="black" />
<path d="M134.36279069767448,-400 L140.8976744186047,-400 L140.8976744186047,-350 L134.36279069767448,-350 L134.36279069767448,-400 Z" fill="#f0f0f0" />
<path d="M140.8976744186047,-400 L147.43255813953493,-400 L147.43255813953493,-350 L140.8976744186047,-350 L140.8976744186047,-400 Z" fill="black" />
<path d="M147.43255813953493,-400 L153.96744186046516,-400 L153.96744186046516,-350 L147.43255813953493,-350 L147.43255813953493,-400 Z" fill="#f0f0f0" />
<path d="M153.96744186046516,-400 L160.50232558139538,-400 L160.50232558139538,-350 L153.96744186046516,-350 L153.96744186046516,-400 Z" fill="black" />
<path d="M160.50232558139538,-400 L167.0372093023256,-400 L167.0372093023256,-350 L160.50232558139538,-350 L160.50232558139538,-400 Z" fill="#f0f0f0" />
<path d="M167.0372093023256,-400 L173.57209302325583,-400 L173.57209302325583,-350 L167.0372093023256,-350 L167.0372093023256,-400 Z" fill="black" />
<path d="M173.57209302325583,-400 L180.10697674418606,-400 L180.10697674418606,-350 L173.57209302325583,-350 L173.57209302325583,-400 Z" fill="#f0f0f0" />
<path d="M180.10697674418606,-400 L186.64186046511628,-400 L186.64186046511628,-350 L180.10697674418606,-350 L180.10697674418606,-400 Z" fill="black" />
<path d="M186.64186046511628,-400 L193.1767441860465,-400 L193.1767441860465,-350 L186.64186046511628,-350 L186.64186046511628,-400 Z" fill="#f0f0f0" />
<path d="M193.1767441860465,-400 L199.71162790697673,-400 L199.71162790697673,-350 L193.1767441860465,-350 L193.1767441860465,-400 Z" fill="black" />
<path d="M199.71162790697673,-400 L206.24651162790695,-400 L206.24651162790695,-350 L199.71162790697673,-350 L199.71162790697673,-400 Z" fill="#f0f0f0" />
<path d="M206.24651162790695,-400 L212.78139534883718,-400 L212.78139534883718,-350 L206.24651162790695,-350 L206.24651162790695,-400 Z" fill="black" />
<path d="M212.78139534883718,-400 L219.3162790697674,-400 L219.3162790697674,-350 L212.78139534883718,-350 L212.78139534883718,-400 Z" fill="#f0f0f0" />
<path d="M219.3162790697674,-400 L225.85116279069763,-400 L225.85116279069763,-350 L219.3162790697674,-350 L219.3162790697674,-400 Z" fill="black" />
<path d="M225.85116279069763,-400 L232.38604651162785,-400 L232.38604651162785,-350 L225.85116279069763,-350 L225.85116279069763,-400 Z" fill="#f0f0f0" />
<path d="M232.38604651162785,-400 L238.92093023255808,-400 L238.92093023255808,-350 L232.38604651162785,-350 L232.38604651162785,-400 Z" fill="black" />
<path d="M238.92093023255808,-400 L245.4558139534883,-400 L245.4558139534883,-350 L238.92093023255808,-350 L238.92093023255808,-400 Z" fill="#f0f0f0" />
<path d="M245.4558139534883,-400 L251.99069767441853,-400 L251.99069767441853,-350 L245.4558139534883,-350 L245.4558139534883,-400 Z" fill="black" />
<path d="M251.99069767441853,-400 L258.52558139534875,-400 L258.52558139534875,-350 L251.99069767441853,-350 L251.99069767441853,-400 Z" fill="#f0f0f0" />
<path d="M258.52558139534875,-400 L265.060465116279,-400 L265.060465116279,-350 L258.52558139534875,-350 L258.52558139534875,-400 Z" fill="black" />
<path d="M265.060465116279,-400 L271.5953488372092,-400 L271.5953488372092,-350 L265.060465116279,-350 L265.060465116279,-400 Z" fill="#f0f0f0" />
<path d="M271.5953488372092,-400 L278.1302325581394,-400 L278.1302325581394,-350 L271.5953488372092,-350 L271.5953488372092,-400 Z" fill="black" />
<path d="M278.1302325581394,-400 L284.66511627906965,-400 L284.66511627906965,-350 L278.1302325581394,-350 L278.1302325581394,-400 Z" fill="#f0f0f0" />
<path d="M284.66511627906965,-400 L291.1999999999999,-400 L291.1999999999999,-350 L284.66511627906965,-350 L284.66511627906965,-400 Z" fill="black" />
<text x="10.2" y="-410" font-size="26" fill="black" dy="0em">CRISPR: I-B</text>
<path d="M2459.2000000000003,-400 L2742.4,-400 L2742.4,-350 L2459.2000000000003,-350 L2459.2000000000003,-400 Z" fill="white" stroke="white" stroke-width="4" />
<path d="M2459.2000000000003,-400 L2465.7860465116282,-400 L2465.7860465116282,-350 L2459.2000000000003,-350 L2459.2000000000003,-400 Z" fill="black" />
<path d="M2465.7860465116282,-400 L2472.372093023256,-400 L2472.372093023256,-350 L2465.7860465116282,-350 L2465.7860465116282,-400 Z" fill="#f0f0f0" />
<path d="M2472.372093023256,-400 L2478.958139534884,-400 L2478.958139534884,-350 L2472.372093023256,-350 L2472.372093023256,-400 Z" fill="black" />
<path d="M2478.958139534884,-400 L2485.544186046512,-400 L2485.544186046512,-350 L2478.958139534884,-350 L2478.958139534884,-400 Z" fill="#f0f0f0" />
<path d="M2485.544186046512,-400 L2492.13023255814,-400 L2492.13023255814,-350 L2485.544186046512,-350 L2485.544186046512,-400 Z" fill="black" />
<path d="M2492.13023255814,-400 L2498.716279069768,-400 L2498.716279069768,-350 L2492.13023255814,-350 L2492.13023255814,-400 Z" fill="#f0f0f0" />
<path d="M2498.716279069768,-400 L2505.302325581396,-400 L2505.302325581396,-350 L2498.716279069768,-350 L2498.716279069768,-400 Z" fill="black" />
<path d="M2505.302325581396,-400 L2511.888372093024,-400 L2511.888372093024,-350 L2505.302325581396,-350 L2505.302325581396,-400 Z" fill="#f0f0f0" />
<path d="M2511.888372093024,-400 L2518.474418604652,-400 L2518.474418604652,-350 L2511.888372093024,-350 L2511.888372093024,-400 Z" fill="black" />
<path d="M2518.474418604652,-400 L2525.06046511628,-400 L2525.06046511628,-350 L2518.474418604652,-350 L2518.474418604652,-400 Z" fill="#f0f0f0" />
<path d="M2525.06046511628,-400 L2531.646511627908,-400 L2531.646511627908,-350 L2525.06046511628,-350 L2525.06046511628,-400 Z" fill="black" />
<path d="M2531.646511627908,-400 L2538.2325581395357,-400 L2538.2325581395357,-350 L2531.646511627908,-350 L2531.646511627908,-400 Z" fill="#f0f0f0" />
<path d="M2538.2325581395357,-400 L2544.8186046511637,-400 L2544.8186046511637,-350 L2538.2325581395357,-350 L2538.2325581395357,-400 Z" fill="black" />
<path d="M2544.8186046511637,-400 L2551.4046511627917,-400 L2551.4046511627917,-350 L2544.8186046511637,-350 L2544.8186046511637,-400 Z" fill="#f0f0f0" />
<path d="M2551.4046511627917,-400 L2557.9906976744196,-400 L2557.9906976744196,-350 L2551.4046511627917,-350 L2551.4046511627917,-400 Z" fill="black" />
<path d="M2557.9906976744196,-400 L2564.5767441860476,-400 L2564.5767441860476,-350 L2557.9906976744196,-350 L2557.9906976744196,-400 Z" fill="#f0f0f0" />
<path d="M2564.5767441860476,-400 L2571.1627906976755,-400 L2571.1627906976755,-350 L2564.5767441860476,-350 L2564.5767441860476,-400 Z" fill="black" />
<path d="M2571.1627906976755,-400 L2577.7488372093035,-400 L2577.7488372093035,-350 L2571.1627906976755,-350 L2571.1627906976755,-400 Z" fill="#f0f0f0" />
<path d="M2577.7488372093035,-400 L2584.3348837209314,-400 L2584.3348837209314,-350 L2577.7488372093035,-350 L2577.7488372093035,-400 Z" fill="black" />
<path d="M2584.3348837209314,-400 L2590.9209302325594,-400 L2590.9209302325594,-350 L2584.3348837209314,-350 L2584.3348837209314,-400 Z" fill="#f0f0f0" />
<path d="M2590.9209302325594,-400 L2597.5069767441873,-400 L2597.5069767441873,-350 L2590.9209302325594,-350 L2590.9209302325594,-400 Z" fill="black" />
<path d="M2597.5069767441873,-400 L2604.0930232558153,-400 L2604.0930232558153,-350 L2597.5069767441873,-350 L2597.5069767441873,-400 Z" fill="#f0f0f0" />
<path d="M2604.0930232558153,-400 L2610.6790697674433,-400 L2610.6790697674433,-350 L2604.0930232558153,-350 L2604.0930232558153,-400 Z" fill="black" />
<path d="M2610.6790697674433,-400 L2617.265116279071,-400 L2617.265116279071,-350 L2610.6790697674433,-350 L2610.6790697674433,-400 Z" fill="#f0f0f0" />
<path d="M2617.265116279071,-400 L2623.851162790699,-400 L2623.851162790699,-350 L2617.265116279071,-350 L2617.265116279071,-400 Z" fill="black" />
<path d="M2623.851162790699,-400 L2630.437209302327,-400 L2630.437209302327,-350 L2623.851162790699,-350 L2623.851162790699,-400 Z" fill="#f0f0f0" />
<path d="M2630.437209302327,-400 L2637.023255813955,-400 L2637.023255813955,-350 L2630.437209302327,-350 L2630.437209302327,-400 Z" fill="black" />
<path d="M2637.023255813955,-400 L2643.609302325583,-400 L2643.609302325583,-350 L2637.023255813955,-350 L2637.023255813955,-400 Z" fill="#f0f0f0" />
<path d="M2643.609302325583,-400 L2650.195348837211,-400 L2650.195348837211,-350 L2643.609302325583,-350 L2643.609302325583,-400 Z" fill="black" />
<path d="M2650.195348837211,-400 L2656.781395348839,-400 L2656.781395348839,-350 L2650.195348837211,-350 L2650.195348837211,-400 Z" fill="#f0f0f0" />
<path d="M2656.781395348839,-400 L2663.367441860467,-400 L2663.367441860467,-350 L2656.781395348839,-350 L2656.781395348839,-400 Z" fill="black" />
<path d="M2663.367441860467,-400 L2669.953488372095,-400 L2669.953488372095,-350 L2663.367441860467,-350 L2663.367441860467,-400 Z" fill="#f0f0f0" />
<path d="M2669.953488372095,-400 L2676.539534883723,-400 L2676.539534883723,-350 L2669.953488372095,-350 L2669.953488372095,-400 Z" fill="black" />
<path d="M2676.539534883723,-400 L2683.1255813953508,-400 L2683.1255813953508,-350 L2676.539534883723,-350 L2676.539534883723,-400 Z" fill="#f0f0f0" />
<path d="M2683.1255813953508,-400 L2689.7116279069787,-400 L2689.7116279069787,-350 L2683.1255813953508,-350 L2683.1255813953508,-400 Z" fill="black" />
<path d="M2689.7116279069787,-400 L2696.2976744186067,-400 L2696.2976744186067,-350 L2689.7116279069787,-350 L2689.7116279069787,-400 Z" fill="#f0f0f0" />
<path d="M2696.2976744186067,-400 L2702.8837209302346,-400 L2702.8837209302346,-350 L2696.2976744186067,-350 L2696.2976744186067,-400 Z" fill="black" />
<path d="M2702.8837209302346,-400 L2709.4697674418626,-400 L2709.4697674418626,-350 L2702.8837209302346,-350 L2702.8837209302346,-400 Z" fill="#f0f0f0" />
<path d="M2709.4697674418626,-400 L2716.0558139534905,-400 L2716.0558139534905,-350 L2709.4697674418626,-350 L2709.4697674418626,-400 Z" fill="black" />
<path d="M2716.0558139534905,-400 L2722.6418604651185,-400 L2722.6418604651185,-350 L2716.0558139534905,-350 L2716.0558139534905,-400 Z" fill="#f0f0f0" />
<path d="M2722.6418604651185,-400 L2729.2279069767465,-400 L2729.2279069767465,-350 L2722.6418604651185,-350 L2722.6418604651185,-400 Z" fill="black" />
<path d="M2729.2279069767465,-400 L2735.8139534883744,-400 L2735.8139534883744,-350 L2729.2279069767465,-350 L2729.2279069767465,-400 Z" fill="#f0f0f0" />
<path d="M2735.8139534883744,-400 L2742.4000000000024,-400 L2742.4000000000024,-350 L2735.8139534883744,-350 L2735.8139534883744,-400 Z" fill="black" />
<text x="2459.2000000000003" y="-410" font-size="26" fill="black" dy="0em">CRISPR: I-B</text>
<text x="16.0" y="-260" font-size="38" fill="black" dy="0em">I-D: NC_017459.1@6 (392895-406637)</text>
<path d="M40.2,-200 L151.6,-200 L151.6,-150 L40.2,-150 L10.2,-175.0 L40.2,-200 Z" fill="#ff80e6" fill-opacity="0.8" stroke="#ff80e6" stroke-width="4" />
<text x="10.2" y="-210" font-size="26" fill="black" dy="0em">CasR</text>
<path d="M164.0,-200 L307.20000000000005,-200 L337.20000000000005,-175.0 L307.20000000000005,-150 L164.0,-150 L164.0,-200 Z" fill="#dd1424" fill-opacity="0.8" stroke="#dd1424" stroke-width="4" />
<text x="164.0" y="-120" font-size="26" fill="black" dy="0em">Cas6</text>
<path d="M336.6,-200 L917.2,-200 L947.2,-175.0 L917.2,-150 L336.6,-150 L336.6,-200 Z" fill="#efc050" fill-opacity="0.8" stroke="#efc050" stroke-width="4" />
<text x="336.6" y="-210" font-size="26" fill="black" dy="0em">Cas10d</text>
<path d="M947.8000000000001,-200 L1115.6000000000001,-200 L1145.6000000000001,-175.0 L1115.6000000000001,-150 L947.8000000000001,-150 L947.8000000000001,-200 Z" fill="#efc050" fill-opacity="0.8" stroke="#efc050" stroke-width="4" />
<text x="947.8000000000001" y="-120" font-size="26" fill="black" dy="0em">Csc2</text>
<path d="M1147.8,-200 L1266.4,-200 L1296.4,-175.0 L1266.4,-150 L1147.8,-150 L1147.8,-200 Z" fill="#efc050" fill-opacity="0.8" stroke="#efc050" stroke-width="4" />
<text x="1147.8" y="-210" font-size="26" fill="black" dy="0em">Csc1</text>
<path d="M1289.0,-200 L1695.0,-200 L1725.0,-175.0 L1695.0,-150 L1289.0,-150 L1289.0,-200 Z" fill="#efc050" fill-opacity="0.8" stroke="#efc050" stroke-width="4" />
<text x="1289.0" y="-120" font-size="26" fill="black" dy="0em">Cas3</text>
<path d="M1724.4,-200 L1817.8000000000002,-200 L1847.8000000000002,-175.0 L1817.8000000000002,-150 L1724.4,-150 L1724.4,-200 Z" fill="#5b5ea6" fill-opacity="0.8" stroke="#5b5ea6" stroke-width="4" />
<text x="1724.4" y="-210" font-size="26" fill="black" dy="0em">Cas4</text>
<path d="M1847.2,-200 L2016.2,-200 L2046.2,-175.0 L2016.2,-150 L1847.2,-150 L1847.2,-200 Z" fill="#5b5ea6" fill-opacity="0.8" stroke="#5b5ea6" stroke-width="4" />
<text x="1847.2" y="-120" font-size="26" fill="black" dy="0em">Cas1</text>
<path d="M2046.8000000000002,-200 L2071.2000000000003,-200 L2101.2000000000003,-175.0 L2071.2000000000003,-150 L2046.8000000000002,-150 L2046.8000000000002,-200 Z" fill="#5b5ea6" fill-opacity="0.8" stroke="#5b5ea6" stroke-width="4" />
<text x="2046.8000000000002" y="-210" font-size="26" fill="black" dy="0em">Cas2</text>
<path d="M2124.4,-200 L2758.6000000000004,-200 L2758.6000000000004,-150 L2124.4,-150 L2124.4,-200 Z" fill="white" stroke="white" stroke-width="4" />
<path d="M2124.4,-200 L2131.689655172414,-200 L2131.689655172414,-150 L2124.4,-150 L2124.4,-200 Z" fill="black" />
<path d="M2131.689655172414,-200 L2138.979310344828,-200 L2138.979310344828,-150 L2131.689655172414,-150 L2131.689655172414,-200 Z" fill="#f0f0f0" />
<path d="M2138.979310344828,-200 L2146.2689655172417,-200 L2146.2689655172417,-150 L2138.979310344828,-150 L2138.979310344828,-200 Z" fill="black" />
<path d="M2146.2689655172417,-200 L2153.5586206896555,-200 L2153.5586206896555,-150 L2146.2689655172417,-150 L2146.2689655172417,-200 Z" fill="#f0f0f0" />
<path d="M2153.5586206896555,-200 L2160.8482758620694,-200 L2160.8482758620694,-150 L2153.5586206896555,-150 L2153.5586206896555,-200 Z" fill="black" />
<path d="M2160.8482758620694,-200 L2168.1379310344832,-200 L2168.1379310344832,-150 L2160.8482758620694,-150 L2160.8482758620694,-200 Z" fill="#f0f0f0" />
<path d="M2168.1379310344832,-200 L2175.427586206897,-200 L2175.427586206897,-150 L2168.1379310344832,-150 L2168.1379310344832,-200 Z" fill="black" />
<path d="M2175.427586206897,-200 L2182.717241379311,-200 L2182.717241379311,-150 L2175.427586206897,-150 L2175.427586206897,-200 Z" fill="#f0f0f0" />
<path d="M2182.717241379311,-200 L2190.006896551725,-200 L2190.006896551725,-150 L2182.717241379311,-150 L2182.717241379311,-200 Z" fill="black" />
<path d="M2190.006896551725,-200 L2197.2965517241387,-200 L2197.2965517241387,-150 L2190.006896551725,-150 L2190.006896551725,-200 Z" fill="#f0f0f0" />
<path d="M2197.2965517241387,-200 L2204.5862068965525,-200 L2204.5862068965525,-150 L2197.2965517241387,-150 L2197.2965517241387,-200 Z" fill="black" />
<path d="M2204.5862068965525,-200 L2211.8758620689664,-200 L2211.8758620689664,-150 L2204.5862068965525,-150 L2204.5862068965525,-200 Z" fill="#f0f0f0" />
<path d="M2211.8758620689664,-200 L2219.1655172413803,-200 L2219.1655172413803,-150 L2211.8758620689664,-150 L2211.8758620689664,-200 Z" fill="black" />
<path d="M2219.1655172413803,-200 L2226.455172413794,-200 L2226.455172413794,-150 L2219.1655172413803,-150 L2219.1655172413803,-200 Z" fill="#f0f0f0" />
<path d="M2226.455172413794,-200 L2233.744827586208,-200 L2233.744827586208,-150 L2226.455172413794,-150 L2226.455172413794,-200 Z" fill="black" />
<path d="M2233.744827586208,-200 L2241.034482758622,-200 L2241.034482758622,-150 L2233.744827586208,-150 L2233.744827586208,-200 Z" fill="#f0f0f0" />
<path d="M2241.034482758622,-200 L2248.3241379310357,-200 L2248.3241379310357,-150 L2241.034482758622,-150 L2241.034482758622,-200 Z" fill="black" />
<path d="M2248.3241379310357,-200 L2255.6137931034496,-200 L2255.6137931034496,-150 L2248.3241379310357,-150 L2248.3241379310357,-200 Z" fill="#f0f0f0" />
<path d="M2255.6137931034496,-200 L2262.9034482758634,-200 L2262.9034482758634,-150 L2255.6137931034496,-150 L2255.6137931034496,-200 Z" fill="black" />
<path d="M2262.9034482758634,-200 L2270.1931034482773,-200 L2270.1931034482773,-150 L2262.9034482758634,-150 L2262.9034482758634,-200 Z" fill="#f0f0f0" />
<path d="M2270.1931034482773,-200 L2277.482758620691,-200 L2277.482758620691,-150 L2270.1931034482773,-150 L2270.1931034482773,-200 Z" fill="black" />
<path d="M2277.482758620691,-200 L2284.772413793105,-200 L2284.772413793105,-150 L2277.482758620691,-150 L2277.482758620691,-200 Z" fill="#f0f0f0" />
<path d="M2284.772413793105,-200 L2292.062068965519,-200 L2292.062068965519,-150 L2284.772413793105,-150 L2284.772413793105,-200 Z" fill="black" />
<path d="M2292.062068965519,-200 L2299.3517241379327,-200 L2299.3517241379327,-150 L2292.062068965519,-150 L2292.062068965519,-200 Z" fill="#f0f0f0" />
<path d="M2299.3517241379327,-200 L2306.6413793103466,-200 L2306.6413793103466,-150 L2299.3517241379327,-150 L2299.3517241379327,-200 Z" fill="black" />
<path d="M2306.6413793103466,-200 L2313.9310344827604,-200 L2313.9310344827604,-150 L2306.6413793103466,-150 L2306.6413793103466,-200 Z" fill="#f0f0f0" />
<path d="M2313.9310344827604,-200 L2321.2206896551743,-200 L2321.2206896551743,-150 L2313.9310344827604,-150 L2313.9310344827604,-200 Z" fill="black" />
<path d="M2321.2206896551743,-200 L2328.510344827588,-200 L2328.510344827588,-150 L2321.2206896551743,-150 L2321.2206896551743,-200 Z" fill="#f0f0f0" />
<path d="M2328.510344827588,-200 L2335.800000000002,-200 L2335.800000000002,-150 L2328.510344827588,-150 L2328.510344827588,-200 Z" fill="black" />
<path d="M2335.800000000002,-200 L2343.089655172416,-200 L2343.089655172416,-150 L2335.800000000002,-150 L2335.800000000002,-200 Z" fill="#f0f0f0" />
<path d="M2343.089655172416,-200 L2350.3793103448297,-200 L2350.3793103448297,-150 L2343.089655172416,-150 L2343.089655172416,-200 Z" fill="black" />
<path d="M2350.3793103448297,-200 L2357.6689655172436,-200 L2357.6689655172436,-150 L2350.3793103448297,-150 L2350.3793103448297,-200 Z" fill="#f0f0f0" />
<path d="M2357.6689655172436,-200 L2364.9586206896574,-200 L2364.9586206896574,-150 L2357.6689655172436,-150 L2357.6689655172436,-200 Z" fill="black" />
<path d="M2364.9586206896574,-200 L2372.2482758620713,-200 L2372.2482758620713,-150 L2364.9586206896574,-150 L2364.9586206896574,-200 Z" fill="#f0f0f0" />
<path d="M2372.2482758620713,-200 L2379.537931034485,-200 L2379.537931034485,-150 L2372.2482758620713,-150 L2372.2482758620713,-200 Z" fill="black" />
<path d="M2379.537931034485,-200 L2386.827586206899,-200 L2386.827586206899,-150 L2379.537931034485,-150 L2379.537931034485,-200 Z" fill="#f0f0f0" />
<path d="M2386.827586206899,-200 L2394.117241379313,-200 L2394.117241379313,-150 L2386.827586206899,-150 L2386.827586206899,-200 Z" fill="black" />
<path d="M2394.117241379313,-200 L2401.4068965517267,-200 L2401.4068965517267,-150 L2394.117241379313,-150 L2394.117241379313,-200 Z" fill="#f0f0f0" />
<path d="M2401.4068965517267,-200 L2408.6965517241406,-200 L2408.6965517241406,-150 L2401.4068965517267,-150 L2401.4068965517267,-200 Z" fill="black" />
<path d="M2408.6965517241406,-200 L2415.9862068965544,-200 L2415.9862068965544,-150 L2408.6965517241406,-150 L2408.6965517241406,-200 Z" fill="#f0f0f0" />
<path d="M2415.9862068965544,-200 L2423.2758620689683,-200 L2423.2758620689683,-150 L2415.9862068965544,-150 L2415.9862068965544,-200 Z" fill="black" />
<path d="M2423.2758620689683,-200 L2430.565517241382,-200 L2430.565517241382,-150 L2423.2758620689683,-150 L2423.2758620689683,-200 Z" fill="#f0f0f0" />
<path d="M2430.565517241382,-200 L2437.855172413796,-200 L2437.855172413796,-150 L2430.565517241382,-150 L2430.565517241382,-200 Z" fill="black" />
<path d="M2437.855172413796,-200 L2445.14482758621,-200 L2445.14482758621,-150 L2437.855172413796,-150 L2437.855172413796,-200 Z" fill="#f0f0f0" />
<path d="M2445.14482758621,-200 L2452.4344827586237,-200 L2452.4344827586237,-150 L2445.14482758621,-150 L2445.14482758621,-200 Z" fill="black" />
<path d="M2452.4344827586237,-200 L2459.7241379310376,-200 L2459.7241379310376,-150 L2452.4344827586237,-150 L2452.4344827586237,-200 Z" fill="#f0f0f0" />
<path d="M2459.7241379310376,-200 L2467.0137931034515,-200 L2467.0137931034515,-150 L2459.7241379310376,-150 L2459.7241379310376,-200 Z" fill="black" />
<path d="M2467.0137931034515,-200 L2474.3034482758653,-200 L2474.3034482758653,-150 L2467.0137931034515,-150 L2467.0137931034515,-200 Z" fill="#f0f0f0" />
<path d="M2474.3034482758653,-200 L2481.593103448279,-200 L2481.593103448279,-150 L2474.3034482758653,-150 L2474.3034482758653,-200 Z" fill="black" />
<path d="M2481.593103448279,-200 L2488.882758620693,-200 L2488.882758620693,-150 L2481.593103448279,-150 L2481.593103448279,-200 Z" fill="#f0f0f0" />
<path d="M2488.882758620693,-200 L2496.172413793107,-200 L2496.172413793107,-150 L2488.882758620693,-150 L2488.882758620693,-200 Z" fill="black" />
<path d="M2496.172413793107,-200 L2503.4620689655208,-200 L2503.4620689655208,-150 L2496.172413793107,-150 L2496.172413793107,-200 Z" fill="#f0f0f0" />
<path d="M2503.4620689655208,-200 L2510.7517241379346,-200 L2510.7517241379346,-150 L2503.4620689655208,-150 L2503.4620689655208,-200 Z" fill="black" />
<path d="M2510.7517241379346,-200 L2518.0413793103485,-200 L2518.0413793103485,-150 L2510.7517241379346,-150 L2510.7517241379346,-200 Z" fill="#f0f0f0" />
<path d="M2518.0413793103485,-200 L2525.3310344827623,-200 L2525.3310344827623,-150 L2518.0413793103485,-150 L2518.0413793103485,-200 Z" fill="black" />
<path d="M2525.3310344827623,-200 L2532.620689655176,-200 L2532.620689655176,-150 L2525.3310344827623,-150 L2525.3310344827623,-200 Z" fill="#f0f0f0" />
<path d="M2532.620689655176,-200 L2539.91034482759,-200 L2539.91034482759,-150 L2532.620689655176,-150 L2532.620689655176,-200 Z" fill="black" />
<path d="M2539.91034482759,-200 L2547.200000000004,-200 L2547.200000000004,-150 L2539.91034482759,-150 L2539.91034482759,-200 Z" fill="#f0f0f0" />
<path d="M2547.200000000004,-200 L2554.4896551724178,-200 L2554.4896551724178,-150 L2547.200000000004,-150 L2547.200000000004,-200 Z" fill="black" />
<path d="M2554.4896551724178,-200 L2561.7793103448316,-200 L2561.7793103448316,-150 L2554.4896551724178,-150 L2554.4896551724178,-200 Z" fill="#f0f0f0" />
<path d="M2561.7793103448316,-200 L2569.0689655172455,-200 L2569.0689655172455,-150 L2561.7793103448316,-150 L2561.7793103448316,-200 Z" fill="black" />
<path d="M2569.0689655172455,-200 L2576.3586206896593,-200 L2576.3586206896593,-150 L2569.0689655172455,-150 L2569.0689655172455,-200 Z" fill="#f0f0f0" />
<path d="M2576.3586206896593,-200 L2583.648275862073,-200 L2583.648275862073,-150 L2576.3586206896593,-150 L2576.3586206896593,-200 Z" fill="black" />
<path d="M2583.648275862073,-200 L2590.937931034487,-200 L2590.937931034487,-150 L2583.648275862073,-150 L2583.648275862073,-200 Z" fill="#f0f0f0" />
<path d="M2590.937931034487,-200 L2598.227586206901,-200 L2598.227586206901,-150 L2590.937931034487,-150 L2590.937931034487,-200 Z" fill="black" />
<path d="M2598.227586206901,-200 L2605.517241379315,-200 L2605.517241379315,-150 L2598.227586206901,-150 L2598.227586206901,-200 Z" fill="#f0f0f0" />
<path d="M2605.517241379315,-200 L2612.8068965517286,-200 L2612.8068965517286,-150 L2605.517241379315,-150 L2605.517241379315,-200 Z" fill="black" />
<path d="M2612.8068965517286,-200 L2620.0965517241425,-200 L2620.0965517241425,-150 L2612.8068965517286,-150 L2612.8068965517286,-200 Z" fill="#f0f0f0" />
<path d="M2620.0965517241425,-200 L2627.3862068965564,-200 L2627.3862068965564,-150 L2620.0965517241425,-150 L2620.0965517241425,-200 Z" fill="black" />
<path d="M2627.3862068965564,-200 L2634.67586206897,-200 L2634.67586206897,-150 L2627.3862068965564,-150 L2627.3862068965564,-200 Z" fill="#f0f0f0" />
<path d="M2634.67586206897,-200 L2641.965517241384,-200 L2641.965517241384,-150 L2634.67586206897,-150 L2634.67586206897,-200 Z" fill="black" />
<path d="M2641.965517241384,-200 L2649.255172413798,-200 L2649.255172413798,-150 L2641.965517241384,-150 L2641.965517241384,-200 Z" fill="#f0f0f0" />
<path d="M2649.255172413798,-200 L2656.544827586212,-200 L2656.544827586212,-150 L2649.255172413798,-150 L2649.255172413798,-200 Z" fill="black" />
<path d="M2656.544827586212,-200 L2663.8344827586257,-200 L2663.8344827586257,-150 L2656.544827586212,-150 L2656.544827586212,-200 Z" fill="#f0f0f0" />
<path d="M2663.8344827586257,-200 L2671.1241379310395,-200 L2671.1241379310395,-150 L2663.8344827586257,-150 L2663.8344827586257,-200 Z" fill="black" />
<path d="M2671.1241379310395,-200 L2678.4137931034534,-200 L2678.4137931034534,-150 L2671.1241379310395,-150 L2671.1241379310395,-200 Z" fill="#f0f0f0" />
<path d="M2678.4137931034534,-200 L2685.7034482758672,-200 L2685.7034482758672,-150 L2678.4137931034534,-150 L2678.4137931034534,-200 Z" fill="black" />
<path d="M2685.7034482758672,-200 L2692.993103448281,-200 L2692.993103448281,-150 L2685.7034482758672,-150 L2685.7034482758672,-200 Z" fill="#f0f0f0" />
<path d="M2692.993103448281,-200 L2700.282758620695,-200 L2700.282758620695,-150 L2692.993103448281,-150 L2692.993103448281,-200 Z" fill="black" />
<path d="M2700.282758620695,-200 L2707.572413793109,-200 L2707.572413793109,-150 L2700.282758620695,-150 L2700.282758620695,-200 Z" fill="#f0f0f0" />
<path d="M2707.572413793109,-200 L2714.8620689655227,-200 L2714.8620689655227,-150 L2707.572413793109,-150 L2707.572413793109,-200 Z" fill="black" />
<path d="M2714.8620689655227,-200 L2722.1517241379365,-200 L2722.1517241379365,-150 L2714.8620689655227,-150 L2714.8620689655227,-200 Z" fill="#f0f0f0" />
<path d="M2722.1517241379365,-200 L2729.4413793103504,-200 L2729.4413793103504,-150 L2722.1517241379365,-150 L2722.1517241379365,-200 Z" fill="black" />
<path d="M2729.4413793103504,-200 L2736.7310344827642,-200 L2736.7310344827642,-150 L2729.4413793103504,-150 L2729.4413793103504,-200 Z" fill="#f0f0f0" />
<path d="M2736.7310344827642,-200 L2744.020689655178,-200 L2744.020689655178,-150 L2736.7310344827642,-150 L2736.7310344827642,-200 Z" fill="black" />
<path d="M2744.020689655178,-200 L2751.310344827592,-200 L2751.310344827592,-150 L2744.020689655178,-150 L2744.020689655178,-200 Z" fill="#f0f0f0" />
<path d="M2751.310344827592,-200 L2758.600000000006,-200 L2758.600000000006,-150 L2751.310344827592,-150 L2751.310344827592,-200 Z" fill="black" />
<text x="2124.4" y="-210" font-size="26" fill="black" dy="0em">CRISPR: I-D</text>
</svg>