<?xml version="1.0" encoding="UTF-8"?>
<svg xmlns="http://www.w3.org/2000/svg" xmlns:xlink="http://www.w3.org/1999/xlink"
     width="4459" height="1800" viewBox="0 -1800 4459 1800">
<defs>
</defs>
<path d="M210,-20 L210,-1720" stroke="grey" stroke-width="1" fill="none" />
<text x="160" y="-1730" font-size="22" fill="grey" dy="0em">1000</text>
<path d="M410,-20 L410,-1720" stroke="grey" stroke-width="1" fill="none" />
<text x="360" y="-1730" font-size="22" fill="grey" dy="0em">2000</text>
<path d="M610,-20 L610,-1720" stroke="grey" stroke-width="1" fill="none" />
<text x="560" y="-1730" font-size="22" fill="grey" dy="0em">3000</text>
<path d="M810,-20 L810,-1720" stroke="grey" stroke-width="1" fill="none" />
<text x="760" y="-1730" font-size="22" fill="grey" dy="0em">4000</text>
<path d="M1010,-20 L1010,-1720" stroke="grey" stroke-width="1" fill="none" />
<text x="960" y="-1730" font-size="22" fill="grey" dy="0em">5000</text>
<path d="M1210,-20 L1210,-1720" stroke="grey" stroke-width="1" fill="none" />
<text x="1160" y="-1730" font-size="22" fill="grey" dy="0em">6000</text>
<path d="M1410,-20 L1410,-1720" stroke="grey" stroke-width="1" fill="none" />
<text x="1360" y="-1730" font-size="22" fill="grey" dy="0em">7000</text>
<path d="M1610,-20 L1610,-1720" stroke="grey" stroke-width="1" fill="none" />
<text x="1560" y="-1730" font-size="22" fill="grey" dy="0em">8000</text>
<path d="M1810,-20 L1810,-1720" stroke="grey" stroke-width="1" fill="none" />
<text x="1760" y="-1730" font-size="22" fill="grey" dy="0em">9000</text>
<path d="M2010,-20 L2010,-1720" stroke="grey" stroke-width="1" fill="none" />
<text x="1960" y="-1730" font-size="22" fill="grey" dy="0em">10000</text>
<path d="M2210,-20 L2210,-1720" stroke="grey" stroke-width="1" fill="none" />
<text x="2160" y="-1730" font-size="22" fill="grey" dy="0em">11000</text>
<path d="M2410,-20 L2410,-1720" stroke="grey" stroke-width="1" fill="none" />
<text x="2360" y="-1730" font-size="22" fill="grey" dy="0em">12000</text>
<path d="M2610,-20 L2610,-1720" stroke="grey" stroke-width="1" fill="none" />
<text x="2560" y="-1730" font-size="22" fill="grey" dy="0em">13000</text>
<path d="M2810,-20 L2810,-1720" stroke="grey" stroke-width="1" fill="none" />
<text x="2760" y="-1730" font-size="22" fill="grey" dy="0em">14000</text>
<path d="M3010,-20 L3010,-1720" stroke="grey" stroke-width="1" fill="none" />
<text x="2960" y="-1730" font-size="22" fill="grey" dy="0em">15000</text>
<path d="M3210,-20 L3210,-1720" stroke="grey" stroke-width="1" fill="none" />
<text x="3160" y="-1730" font-size="22" fill="grey" dy="0em">16000</text>
<path d="M3410,-20 L3410,-1720" stroke="grey" stroke-width="1" fill="none" />
<text x="3360" y="-1730" font-size="22" fill="grey" dy="0em">17000</text>
<path d="M3610,-20 L3610,-1720" stroke="grey" stroke-width="1" fill="none" />
<text x="3560" y="-1730" font-size="22" fill="grey" dy="0em">18000</text>
<path d="M3810,-20 L3810,-1720" stroke="grey" stroke-width="1" fill="none" />
<text x="3760" y="-1730" font-size="22" fill="grey" dy="0em">19000</text>
<path d="M4010,-20 L4010,-1720" stroke="grey" stroke-width="1" fill="none" />
<text x="3960" y="-1730" font-size="22" fill="grey" dy="0em">20000</text>
<path d="M4210,-20 L4210,-1720" stroke="grey" stroke-width="1" fill="none" />
<text x="4160" y="-1730" font-size="22" fill="grey" dy="0em">21000</text>
<path d="M4410,-20 L4410,-1720" stroke="grey" stroke-width="1" fill="none" />
<text x="4360" y="-1730" font-size="22" fill="grey" dy="0em">22000</text>
<text x="16.0" y="-1660" font-size="38" fill="black" dy="0em">I-A: CP000816@31 (1009879-1020357)</text>
<path d="M85.8,-1600 L190.0,-1600 L220.0,-1575.0 L190.0,-1550 L85.8,-1550 L85.8,-1600 Z" fill="#d3c9c1" fill-opacity="0.8" stroke="#d3c9c1" stroke-width="4" />
<text x="85.8" y="-1610" font-size="20" fill="black" dy="0em">1160</text>
<path d="M249.4,-1600 L305.0,-1600 L305.0,-1550 L249.4,-1550 L219.4,-1575.0 L249.4,-1600 Z" fill="#d3c9c1" fill-opacity="0.8" stroke="#d3c9c1" stroke-width="4" />
<text x="219.4" y="-1520" font-size="20" fill="black" dy="0em">1161</text>
<path d="M346.8,-1600 L398.20000000000005,-1600 L398.20000000000005,-1550 L346.8,-1550 L316.8,-1575.0 L346.8,-1600 Z" fill="#d3c9c1" fill-opacity="0.8" stroke="#d3c9c1" stroke-width="4" />
<text x="316.8" y="-1610" font-size="20" fill="black" dy="0em">1162</text>
<path d="M441.40000000000003,-1600 L631.4000000000001,-1600 L631.4000000000001,-1550 L441.40000000000003,-1550 L411.40000000000003,-1575.0 L441.40000000000003,-1600 Z" fill="#d3c9c1" fill-opacity="0.8" stroke="#d3c9c1" stroke-width="4" />
<text x="411.40000000000003" y="-1520" font-size="20" fill="black" dy="0em">1163</text>
<path d="M649.0,-1600 L638.6,-1600 L668.6,-1575.0 L638.6,-1550 L649.0,-1550 L649.0,-1600 Z" fill="#d3c9c1" fill-opacity="0.8" stroke="#d3c9c1" stroke-width="4" />
<text x="649.0" y="-1610" font-size="20" fill="black" dy="0em">1164</text>
<path d="M679.8000000000001,-1600 L965.8000000000001,-1600 L995.8000000000001,-1575.0 L965.8000000000001,-1550 L679.8000000000001,-1550 L679.8000000000001,-1600 Z" fill="#d3c9c1" fill-opacity="0.8" stroke="#d3c9c1" stroke-width="4" />
<text x="679.8000000000001" y="-1520" font-size="20" fill="black" dy="0em">1165</text>
<path d="M1161.4,-1600 L1282.4,-1600 L1312.4,-1575.0 L1282.4,-1550 L1161.4,-1550 L1161.4,-1600 Z" fill="#d3c9c1" fill-opacity="0.8" stroke="#d3c9c1" stroke-width="4" />
<text x="1161.4" y="-1610" font-size="20" fill="black" dy="0em">1166</text>
<path d="M1338.8000000000002,-1600 L1458.6000000000001,-1600 L1488.6000000000001,-1575.0 L1458.6000000000001,-1550 L1338.8000000000002,-1550 L1338.8000000000002,-1600 Z" fill="#5b5ea6" fill-opacity="0.8" stroke="#5b5ea6" stroke-width="4" />
<text x="1338.8000000000002" y="-1520" font-size="26" fill="black" dy="0em">Cas4</text>
<path d="M1488.0,-1600 L1641.4,-1600 L1671.4,-1575.0 L1641.4,-1550 L1488.0,-1550 L1488.0,-1600 Z" fill="#5b5ea6" fill-opacity="0.8" stroke="#5b5ea6" stroke-width="4" />
<text x="1488.0" y="-1610" font-size="26" fill="black" dy="0em">Cas1</text>
<path d="M1669.6000000000001,-1600 L1689.2,-1600 L1719.2,-1575.0 L1689.2,-1550 L1669.6000000000001,-1550 L1669.6000000000001,-1600 Z" fill="#5b5ea6" fill-opacity="0.8" stroke="#5b5ea6" stroke-width="4" />
<text x="1669.6000000000001" y="-1520" font-size="26" fill="black" dy="0em">Cas2</text>
<path d="M1715.4,-1600 L1789.0,-1600 L1819.0,-1575.0 L1789.0,-1550 L1715.4,-1550 L1715.4,-1600 Z" fill="#5b5ea6" fill-opacity="0.8" stroke="#5b5ea6" stroke-width="4" />
<text x="1715.4" y="-1610" font-size="26" fill="black" dy="0em">Cas4</text>
<path d="M1835.0,-1600 L1962.0,-1600 L1962.0,-1550 L1835.0,-1550 L1805.0,-1575.0 L1835.0,-1600 Z" fill="#efc050" fill-opacity="0.8" stroke="#efc050" stroke-width="4" />
<text x="1805.0" y="-1520" font-size="26" fill="black" dy="0em">Cas3HD</text>
<path d="M1989.4,-1600 L2285.6,-1600 L2285.6,-1550 L1989.4,-1550 L1959.4,-1575.0 L1989.4,-1600 Z" fill="#efc050" fill-opacity="0.8" stroke="#efc050" stroke-width="4" />
<text x="1959.4" y="-1610" font-size="26" fill="black" dy="0em">Cas3</text>
<path d="M2315.8,-1600 L2489.0,-1600 L2489.0,-1550 L2315.8,-1550 L2285.8,-1575.0 L2315.8,-1600 Z" fill="#efc050" fill-opacity="0.8" stroke="#efc050" stroke-width="4" />
<text x="2285.8" y="-1520" font-size="26" fill="black" dy="0em">Cas8a6</text>
<path d="M2518.4,-1600 L2664.6000000000004,-1600 L2664.6000000000004,-1550 L2518.4,-1550 L2488.4,-1575.0 L2518.4,-1600 Z" fill="#efc050" fill-opacity="0.8" stroke="#efc050" stroke-width="4" />
<text x="2488.4" y="-1610" font-size="26" fill="black" dy="0em">Cas5</text>
<path d="M2695.4,-1600 L2874.0,-1600 L2874.0,-1550 L2695.4,-1550 L2665.4,-1575.0 L2695.4,-1600 Z" fill="#efc050" fill-opacity="0.8" stroke="#efc050" stroke-width="4" />
<text x="2665.4" y="-1520" font-size="26" fill="black" dy="0em">Cas7</text>
<path d="M2905.2000000000003,-1600 L2964.4,-1600 L2964.4,-1550 L2905.2000000000003,-1550 L2875.2000000000003,-1575.0 L2905.2000000000003,-1600 Z" fill="#efc050" fill-opacity="0.8" stroke="#efc050" stroke-width="4" />
<text x="2875.2000000000003" y="-1610" font-size="26" fill="black" dy="0em">Csa5gr11</text>
<path d="M2991.4,-1600 L3075.8,-1600 L3105.8,-1575.0 L3075.8,-1550 L2991.4,-1550 L2991.4,-1600 Z" fill="#ff80e6" fill-opacity="0.8" stroke="#ff80e6" stroke-width="4" />
<text x="2991.4" y="-1520" font-size="26" fill="black" dy="0em">CasR</text>
<path d="M3134.4,-1600 L3420.4,-1600 L3420.4,-1550 L3134.4,-1550 L3104.4,-1575.0 L3134.4,-1600 Z" fill="#d3c9c1" fill-opacity="0.8" stroke="#d3c9c1" stroke-width="4" />
<text x="3104.4" y="-1610" font-size="20" fill="black" dy="0em">1178</text>
<path d="M3436.6000000000004,-1600 L3620.0,-1600 L3650.0,-1575.0 L3620.0,-1550 L3436.6000000000004,-1550 L3436.6000000000004,-1600 Z" fill="#d3c9c1" fill-opacity="0.8" stroke="#d3c9c1" stroke-width="4" />
<text x="3436.6000000000004" y="-1520" font-size="20" fill="black" dy="0em">1179</text>
<path d="M3652.2000000000003,-1600 L3736.0,-1600 L3766.0,-1575.0 L3736.0,-1550 L3652.2000000000003,-1550 L3652.2000000000003,-1600 Z" fill="#d3c9c1" fill-opacity="0.8" stroke="#d3c9c1" stroke-width="4" />
<text x="3652.2000000000003" y="-1610" font-size="20" fill="black" dy="0em">1180</text>
<path d="M3766.0,-1600 L3832.4,-1600 L3862.4,-1575.0 L3832.4,-1550 L3766.0,-1550 L3766.0,-1600 Z" fill="#d3c9c1" fill-opacity="0.8" stroke="#d3c9c1" stroke-width="4" />
<text x="3766.0" y="-1520" font-size="20" fill="black" dy="0em">1181</text>
<path d="M3861.8,-1600 L3893.4,-1600 L3923.4,-1575.0 L3893.4,-1550 L3861.8,-1550 L3861.8,-1600 Z" fill="#d3c9c1" fill-opacity="0.8" stroke="#d3c9c1" stroke-width="4" />
<text x="3861.8" y="-1610" font-size="20" fill="black" dy="0em">1182</text>
<path d="M1010.2,-1600 L1095.8,-1600 L1095.8,-1550 L1010.2,-1550 L1010.2,-1600 Z" fill="white" stroke="white" stroke-width="4" />
<path d="M1010.2,-1600 L1016.7846153846154,-1600 L1016.7846153846154,-1550 L1010.2,-1550 L1010.2,-1600 Z" fill="black" />
<path d="M1016.7846153846154,-1600 L1023.3692307692309,-1600 L1023.3692307692309,-1550 L1016.7846153846154,-1550 L1016.7846153846154,-1600 Z" fill="#f0f0f0" />
<path d="M1023.3692307692309,-1600 L1029.9538461538461,-1600 L1029.9538461538461,-1550 L1023.3692307692309,-1550 L1023.3692307692309,-1600 Z" fill="black" />
<path d="M1029.9538461538461,-1600 L1036.5384615384614,-1600 L1036.5384615384614,-1550 L1029.9538461538461,-1550 L1029.9538461538461,-1600 Z" fill="#f0f0f0" />
<path d="M1036.5384615384614,-1600 L1043.1230769230767,-1600 L1043.1230769230767,-1550 L1036.5384615384614,-1550 L1036.5384615384614,-1600 Z" fill="black" />
<path d="M1043.1230769230767,-1600 L1049.707692307692,-1600 L1049.707692307692,-1550 L1043.1230769230767,-1550 L1043.1230769230767,-1600 Z" fill="#f0f0f0" />
<path d="M1049.707692307692,-1600 L1056.2923076923073,-1600 L1056.2923076923073,-1550 L1049.707692307692,-1550 L1049.707692307692,-1600 Z" fill="black" />
<path d="M1056.2923076923073,-1600 L1062.8769230769226,-1600 L1062.8769230769226,-1550 L1056.2923076923073,-1550 L1056.2923076923073,-1600 Z" fill="#f0f0f0" />
<path d="M1062.8769230769226,-1600 L1069.4615384615379,-1600 L1069.4615384615379,-1550 L1062.8769230769226,-1550 L1062.8769230769226,-1600 Z" fill="black" />
<path d="M1069.4615384615379,-1600 L1076.0461538461532,-1600 L1076.0461538461532,-1550 L1069.4615384615379,-1550 L1069.4615384615379,-1600 Z" fill="#f0f0f0" />
<path d="M1076.0461538461532,-1600 L1082.6307692307685,-1600 L1082.6307692307685,-1550 L1076.0461538461532,-1550 L1076.0461538461532,-1600 Z" fill="black" />
<path d="M1082.6307692307685,-1600 L1089.2153846153838,-1600 L1089.2153846153838,-1550 L1082.6307692307685,-1550 L1082.6307692307685,-1600 Z" fill="#f0f0f0" />
<path d="M1089.2153846153838,-1600 L1095.799999999999,-1600 L1095.799999999999,-1550 L1089.2153846153838,-1550 L1089.2153846153838,-1600 Z" fill="black" />
<text x="1010.2" y="-1610" font-size="26" fill="black" dy="0em">CRISPR: I-A</text>
<text x="16.0" y="-1460" font-size="38" fill="black" dy="0em">III-B: CP000816@14 (405721-417516)</text>
<path d="M363.8,-1400 L375.6,-1400 L375.6,-1350 L363.8,-1350 L333.8,-1375.0 L363.8,-1400 Z" fill="#d3c9c1" fill-opacity="0.8" stroke="#d3c9c1" stroke-width="4" />
<text x="333.8" y="-1410" font-size="20" fill="black" dy="0em">470</text>
<path d="M391.6,-1400 L446.0,-1400 L476.0,-1375.0 L446.0,-1350 L391.6,-1350 L391.6,-1400 Z" fill="#d3c9c1" fill-opacity="0.8" stroke="#d3c9c1" stroke-width="4" />
<text x="391.6" y="-1320" font-size="20" fill="black" dy="0em">471</text>
<path d="M493.20000000000005,-1400 L619.0,-1400 L649.0,-1375.0 L619.0,-1350 L493.20000000000005,-1350 L493.20000000000005,-1400 Z" fill="#d3c9c1" fill-opacity="0.8" stroke="#d3c9c1" stroke-width="4" />
<text x="493.20000000000005" y="-1410" font-size="20" fill="black" dy="0em">472</text>
<path d="M662.8000000000001,-1400 L777.8000000000001,-1400 L807.8000000000001,-1375.0 L777.8000000000001,-1350 L662.8000000000001,-1350 L662.8000000000001,-1400 Z" fill="#d3c9c1" fill-opacity="0.8" stroke="#d3c9c1" stroke-width="4" />
<text x="662.8000000000001" y="-1320" font-size="20" fill="black" dy="0em">473</text>
<path d="M834.2,-1400 L945.0,-1400 L975.0,-1375.0 L945.0,-1350 L834.2,-1350 L834.2,-1400 Z" fill="#d3c9c1" fill-opacity="0.8" stroke="#d3c9c1" stroke-width="4" />
<text x="834.2" y="-1410" font-size="20" fill="black" dy="0em">474</text>
<path d="M1010.2,-1400 L1146.2,-1400 L1176.2,-1375.0 L1146.2,-1350 L1010.2,-1350 L1010.2,-1400 Z" fill="#efc050" fill-opacity="0.8" stroke="#efc050" stroke-width="4" />
<text x="1010.2" y="-1320" font-size="26" fill="black" dy="0em">Cmr4gr7</text>
<path d="M1178.4,-1400 L1270.0,-1400 L1300.0,-1375.0 L1270.0,-1350 L1178.4,-1350 L1178.4,-1400 Z" fill="#efc050" fill-opacity="0.8" stroke="#efc050" stroke-width="4" />
<text x="1178.4" y="-1410" font-size="26" fill="black" dy="0em">Cmr5gr11</text>
<path d="M1298.0,-1400 L1450.2,-1400 L1480.2,-1375.0 L1450.2,-1350 L1298.0,-1350 L1298.0,-1400 Z" fill="#efc050" fill-opacity="0.8" stroke="#efc050" stroke-width="4" />
<text x="1298.0" y="-1320" font-size="26" fill="black" dy="0em">Cmr6gr7</text>
<path d="M1481.6000000000001,-1400 L2041.8000000000002,-1400 L2071.8,-1375.0 L2041.8000000000002,-1350 L1481.6000000000001,-1350 L1481.6000000000001,-1400 Z" fill="#efc050" fill-opacity="0.3" stroke="#efc050" stroke-width="4" />
<text x="1481.6000000000001" y="-1410" font-size="26" fill="black" dy="0em">(Cas10)</text>
<path d="M2073.2000000000003,-1400 L2238.0,-1400 L2268.0,-1375.0 L2238.0,-1350 L2073.2000000000003,-1350 L2073.2000000000003,-1400 Z" fill="#efc050" fill-opacity="0.8" stroke="#efc050" stroke-width="4" />
<text x="2073.2000000000003" y="-1320" font-size="26" fill="black" dy="0em">Cmr3</text>
<path d="M2296.6,-1400 L2564.6000000000004,-1400 L2564.6000000000004,-1350 L2296.6,-1350 L2266.6,-1375.0 L2296.6,-1400 Z" fill="#d3c9c1" fill-opacity="0.8" stroke="#d3c9c1" stroke-width="4" />
<text x="2266.6" y="-1410" font-size="20" fill="black" dy="0em">480</text>
<path d="M2794.2000000000003,-1400 L2885.2000000000003,-1400 L2915.2000000000003,-1375.0 L2885.2000000000003,-1350 L2794.2000000000003,-1350 L2794.2000000000003,-1400 Z" fill="#d3c9c1" fill-opacity="0.8" stroke="#d3c9c1" stroke-width="4" />
<text x="2794.2000000000003" y="-1320" font-size="20" fill="black" dy="0em">481</text>
<path d="M2920.6000000000004,-1400 L3003.8,-1400 L3033.8,-1375.0 L3003.8,-1350 L2920.6000000000004,-1350 L2920.6000000000004,-1400 Z" fill="#5b5ea6" fill-opacity="0.8" stroke="#5b5ea6" stroke-width="4" />
<text x="2920.6000000000004" y="-1410" font-size="26" fill="black" dy="0em">Cas4</text>
<path d="M3053.4,-1400 L3150.4,-1400 L3150.4,-1350 L3053.4,-1350 L3023.4,-1375.0 L3053.4,-1400 Z" fill="#d3c9c1" fill-opacity="0.8" stroke="#d3c9c1" stroke-width="4" />
<text x="3023.4" y="-1320" font-size="20" fill="black" dy="0em">483</text>
<path d="M3165.0,-1400 L3223.0,-1400 L3253.0,-1375.0 L3223.0,-1350 L3165.0,-1350 L3165.0,-1400 Z" fill="#d3c9c1" fill-opacity="0.8" stroke="#d3c9c1" stroke-width="4" />
<text x="3165.0" y="-1410" font-size="20" fill="black" dy="0em">484</text>
<path d="M3252.4,-1400 L3339.2000000000003,-1400 L3369.2000000000003,-1375.0 L3339.2000000000003,-1350 L3252.4,-1350 L3252.4,-1400 Z" fill="#ff80e6" fill-opacity="0.8" stroke="#ff80e6" stroke-width="4" />
<text x="3252.4" y="-1320" font-size="26" fill="black" dy="0em">AbiEii</text>
<path d="M3391.8,-1400 L3494.8,-1400 L3494.8,-1350 L3391.8,-1350 L3361.8,-1375.0 L3391.8,-1400 Z" fill="#d3c9c1" fill-opacity="0.8" stroke="#d3c9c1" stroke-width="4" />
<text x="3361.8" y="-1410" font-size="20" fill="black" dy="0em">486</text>
<path d="M3517.6000000000004,-1400 L3660.2000000000003,-1400 L3660.2000000000003,-1350 L3517.6000000000004,-1350 L3487.6000000000004,-1375.0 L3517.6000000000004,-1400 Z" fill="#d3c9c1" fill-opacity="0.8" stroke="#d3c9c1" stroke-width="4" />
<text x="3487.6000000000004" y="-1320" font-size="20" fill="black" dy="0em">487</text>
<path d="M3694.2000000000003,-1400 L3954.4,-1400 L3954.4,-1350 L3694.2000000000003,-1350 L3664.2000000000003,-1375.0 L3694.2000000000003,-1400 Z" fill="#d3c9c1" fill-opacity="0.8" stroke="#d3c9c1" stroke-width="4" />
<text x="3664.2000000000003" y="-1410" font-size="20" fill="black" dy="0em">488</text>
<path d="M3976.0,-1400 L4097.0,-1400 L4097.0,-1350 L3976.0,-1350 L3946.0,-1375.0 L3976.0,-1400 Z" fill="#d3c9c1" fill-opacity="0.8" stroke="#d3c9c1" stroke-width="4" />
<text x="3946.0" y="-1320" font-size="20" fill="black" dy="0em">489</text>
<path d="M2576.4,-1400 L2725.8,-1400 L2725.8,-1350 L2576.4,-1350 L2576.4,-1400 Z" fill="white" stroke="white" stroke-width="4" />
<path d="M2576.4,-1400 L2582.8956521739133,-1400 L2582.8956521739133,-1350 L2576.4,-1350 L2576.4,-1400 Z" fill="black" />
<path d="M2582.8956521739133,-1400 L2589.3913043478265,-1400 L2589.3913043478265,-1350 L2582.8956521739133,-1350 L2582.8956521739133,-1400 Z" fill="#f0f0f0" />
<path d="M2589.3913043478265,-1400 L2595.8869565217396,-1400 L2595.8869565217396,-1350 L2589.3913043478265,-1350 L2589.3913043478265,-1400 Z" fill="black" />
<path d="M2595.8869565217396,-1400 L2602.382608695653,-1400 L2602.382608695653,-1350 L2595.8869565217396,-1350 L2595.8869565217396,-1400 Z" fill="#f0f0f0" />
<path d="M2602.382608695653,-1400 L2608.878260869566,-1400 L2608.878260869566,-1350 L2602.382608695653,-1350 L2602.382608695653,-1400 Z" fill="black" />
<path d="M2608.878260869566,-1400 L2615.373913043479,-1400 L2615.373913043479,-1350 L2608.878260869566,-1350 L2608.878260869566,-1400 Z" fill="#f0f0f0" />
<path d="M2615.373913043479,-1400 L2621.8695652173924,-1400 L2621.8695652173924,-1350 L2615.373913043479,-1350 L2615.373913043479,-1400 Z" fill="black" />
<path d="M2621.8695652173924,-1400 L2628.3652173913056,-1400 L2628.3652173913056,-1350 L2621.8695652173924,-1350 L2621.8695652173924,-1400 Z" fill="#f0f0f0" />
<path d="M2628.3652173913056,-1400 L2634.8608695652188,-1400 L2634.8608695652188,-1350 L2628.3652173913056,-1350 L2628.3652173913056,-1400 Z" fill="black" />
<path d="M2634.8608695652188,-1400 L2641.356521739132,-1400 L2641.356521739132,-1350 L2634.8608695652188,-1350 L2634.8608695652188,-1400 Z" fill="#f0f0f0" />
<path d="M2641.356521739132,-1400 L2647.852173913045,-1400 L2647.852173913045,-1350 L2641.356521739132,-1350 L2641.356521739132,-1400 Z" fill="black" />
<path d="M2647.852173913045,-1400 L2654.3478260869583,-1400 L2654.3478260869583,-1350 L2647.852173913045,-1350 L2647.852173913045,-1400 Z" fill="#f0f0f0" />
<path d="M2654.3478260869583,-1400 L2660.8434782608715,-1400 L2660.8434782608715,-1350 L2654.3478260869583,-1350 L2654.3478260869583,-1400 Z" fill="black" />
<path d="M2660.8434782608715,-1400 L2667.3391304347847,-1400 L2667.3391304347847,-1350 L2660.8434782608715,-1350 L2660.8434782608715,-1400 Z" fill="#f0f0f0" />
<path d="M2667.3391304347847,-1400 L2673.834782608698,-1400 L2673.834782608698,-1350 L2667.3391304347847,-1350 L2667.3391304347847,-1400 Z" fill="black" />
<path d="M2673.834782608698,-1400 L2680.330434782611,-1400 L2680.330434782611,-1350 L2673.834782608698,-1350 L2673.834782608698,-1400 Z" fill="#f0f0f0" />
<path d="M2680.330434782611,-1400 L2686.8260869565243,-1400 L2686.8260869565243,-1350 L2680.330434782611,-1350 L2680.330434782611,-1400 Z" fill="black" />
<path d="M2686.8260869565243,-1400 L2693.3217391304374,-1400 L2693.3217391304374,-1350 L2686.8260869565243,-1350 L2686.8260869565243,-1400 Z" fill="#f0f0f0" />
<path d="M2693.3217391304374,-1400 L2699.8173913043506,-1400 L2699.8173913043506,-1350 L2693.3217391304374,-1350 L2693.3217391304374,-1400 Z" fill="black" />
<path d="M2699.8173913043506,-1400 L2706.313043478264,-1400 L2706.313043478264,-1350 L2699.8173913043506,-1350 L2699.8173913043506,-1400 Z" fill="#f0f0f0" />
<path d="M2706.313043478264,-1400 L2712.808695652177,-1400 L2712.808695652177,-1350 L2706.313043478264,-1350 L2706.313043478264,-1400 Z" fill="black" />
<path d="M2712.808695652177,-1400 L2719.30434782609,-1400 L2719.30434782609,-1350 L2712.808695652177,-1350 L2712.808695652177,-1400 Z" fill="#f0f0f0" />
<path d="M2719.30434782609,-1400 L2725.8000000000034,-1400 L2725.8000000000034,-1350 L2719.30434782609,-1350 L2719.30434782609,-1400 Z" fill="black" />
<text x="2576.4" y="-1410" font-size="26" fill="black" dy="0em">CRISPR: III-B</text>
<text x="16.0" y="-1260" font-size="38" fill="black" dy="0em">III-B: CP000816@12 (282698-289665)</text>
<path d="M29.200000000000003,-1200 L212.60000000000002,-1200 L242.60000000000002,-1175.0 L212.60000000000002,-1150 L29.200000000000003,-1150 L29.200000000000003,-1200 Z" fill="#d3c9c1" fill-opacity="0.8" stroke="#d3c9c1" stroke-width="4" />
<text x="29.200000000000003" y="-1210" font-size="20" fill="black" dy="0em">327</text>
<path d="M263.6,-1200 L351.6,-1200 L351.6,-1150 L263.6,-1150 L233.60000000000002,-1175.0 L263.6,-1200 Z" fill="#d3c9c1" fill-opacity="0.8" stroke="#d3c9c1" stroke-width="4" />
<text x="233.60000000000002" y="-1120" font-size="20" fill="black" dy="0em">328</text>
<path d="M381.20000000000005,-1200 L600.6,-1200 L630.6,-1175.0 L600.6,-1150 L381.20000000000005,-1150 L381.20000000000005,-1200 Z" fill="#d3c9c1" fill-opacity="0.8" stroke="#d3c9c1" stroke-width="4" />
<text x="381.20000000000005" y="-1210" font-size="20" fill="black" dy="0em">329</text>
<path d="M660.0,-1200 L835.6,-1200 L835.6,-1150 L660.0,-1150 L630.0,-1175.0 L660.0,-1200 Z" fill="#d3c9c1" fill-opacity="0.8" stroke="#d3c9c1" stroke-width="4" />
<text x="630.0" y="-1120" font-size="20" fill="black" dy="0em">330</text>
<path d="M848.8000000000001,-1200 L959.6,-1200 L989.6,-1175.0 L959.6,-1150 L848.8000000000001,-1150 L848.8000000000001,-1200 Z" fill="#d3c9c1" fill-opacity="0.8" stroke="#d3c9c1" stroke-width="4" />
<text x="848.8000000000001" y="-1210" font-size="20" fill="black" dy="0em">331</text>
<path d="M1010.2,-1200 L1294.4,-1200 L1324.4,-1175.0 L1294.4,-1150 L1010.2,-1150 L1010.2,-1200 Z" fill="#ff80e6" fill-opacity="0.8" stroke="#ff80e6" stroke-width="4" />
<text x="1010.2" y="-1120" font-size="26" fill="black" dy="0em">Csx1</text>
<path d="M1347.4,-1200 L1484.6000000000001,-1200 L1514.6000000000001,-1175.0 L1484.6000000000001,-1150 L1347.4,-1150 L1347.4,-1200 Z" fill="#efc050" fill-opacity="0.8" stroke="#efc050" stroke-width="4" />
<text x="1347.4" y="-1210" font-size="26" fill="black" dy="0em">Cmr4gr7</text>
<path d="M1574.0,-1200 L2159.4,-1200 L2189.4,-1175.0 L2159.4,-1150 L1574.0,-1150 L1574.0,-1200 Z" fill="#efc050" fill-opacity="0.8" stroke="#efc050" stroke-width="4" />
<text x="1574.0" y="-1120" font-size="26" fill="black" dy="0em">Cas10</text>
<path d="M2190.8,-1200 L2373.6,-1200 L2403.6,-1175.0 L2373.6,-1150 L2190.8,-1150 L2190.8,-1200 Z" fill="#efc050" fill-opacity="0.8" stroke="#efc050" stroke-width="4" />
<text x="2190.8" y="-1210" font-size="26" fill="black" dy="0em">Cmr3</text>
<path d="M2507.6000000000004,-1200 L2560.8,-1200 L2560.8,-1150 L2507.6000000000004,-1150 L2477.6000000000004,-1175.0 L2507.6000000000004,-1200 Z" fill="#d3c9c1" fill-opacity="0.8" stroke="#d3c9c1" stroke-width="4" />
<text x="2477.6000000000004" y="-1120" font-size="20" fill="black" dy="0em">336</text>
<path d="M2703.8,-1200 L2973.6000000000004,-1200 L2973.6000000000004,-1150 L2703.8,-1150 L2673.8,-1175.0 L2703.8,-1200 Z" fill="#d3c9c1" fill-opacity="0.8" stroke="#d3c9c1" stroke-width="4" />
<text x="2673.8" y="-1210" font-size="20" fill="black" dy="0em">337</text>
<path d="M3028.6000000000004,-1200 L3207.8,-1200 L3207.8,-1150 L3028.6000000000004,-1150 L2998.6000000000004,-1175.0 L3028.6000000000004,-1200 Z" fill="#d3c9c1" fill-opacity="0.8" stroke="#d3c9c1" stroke-width="4" />
<text x="2998.6000000000004" y="-1120" font-size="20" fill="black" dy="0em">338</text>
<path d="M3237.8,-1200 L3276.6000000000004,-1200 L3276.6000000000004,-1150 L3237.8,-1150 L3207.8,-1175.0 L3237.8,-1200 Z" fill="#d3c9c1" fill-opacity="0.8" stroke="#d3c9c1" stroke-width="4" />
<text x="3207.8" y="-1210" font-size="20" fill="black" dy="0em">339</text>
<path d="M3300.6000000000004,-1200 L3353.8,-1200 L3383.8,-1175.0 L3353.8,-1150 L3300.6000000000004,-1150 L3300.6000000000004,-1200 Z" fill="#d3c9c1" fill-opacity="0.8" stroke="#d3c9c1" stroke-width="4" />
<text x="3300.6000000000004" y="-1120" font-size="20" fill="black" dy="0em">340</text>
<path d="M83.0,-1000 L142.20000000000002,-1000 L172.20000000000002,-975.0 L142.20000000000002,-950 L83.0,-950 L83.0,-1000 Z" fill="#d3c9c1" fill-opacity="0.8" stroke="#d3c9c1" stroke-width="4" />
<text x="83.0" y="-1010" font-size="20" fill="black" dy="0em">88</text>
<path d="M174.4,-1000 L186.8,-1000 L216.8,-975.0 L186.8,-950 L174.4,-950 L174.4,-1000 Z" fill="#d3c9c1" fill-opacity="0.8" stroke="#d3c9c1" stroke-width="4" />
<text x="174.4" y="-920" font-size="20" fill="black" dy="0em">89</text>
<path d="M226.60000000000002,-1000 L345.8,-1000 L375.8,-975.0 L345.8,-950 L226.60000000000002,-950 L226.60000000000002,-1000 Z" fill="#d3c9c1" fill-opacity="0.8" stroke="#d3c9c1" stroke-width="4" />
<text x="226.60000000000002" y="-1010" font-size="20" fill="black" dy="0em">90</text>
<path d="M373.40000000000003,-1000 L484.20000000000005,-1000 L514.2,-975.0 L484.20000000000005,-950 L373.40000000000003,-950 L373.40000000000003,-1000 Z" fill="#efc050" fill-opacity="0.3" stroke="#efc050" stroke-width="4" />
<text x="373.40000000000003" y="-920" font-size="26" fill="black" dy="0em">(Cas8a2)</text>
<path d="M518.4000000000001,-1000 L520.0,-1000 L550.0,-975.0 L520.0,-950 L518.4000000000001,-950 L518.4000000000001,-1000 Z" fill="#d3c9c1" fill-opacity="0.8" stroke="#d3c9c1" stroke-width="4" />
<text x="518.4000000000001" y="-1010" font-size="20" fill="black" dy="0em">92</text>
<path d="M579.4,-1000 L672.2,-1000 L672.2,-950 L579.4,-950 L549.4,-975.0 L579.4,-1000 Z" fill="#d3c9c1" fill-opacity="0.8" stroke="#d3c9c1" stroke-width="4" />
<text x="549.4" y="-920" font-size="20" fill="black" dy="0em">93</text>
<path d="M732.0,-1000 L831.4000000000001,-1000 L831.4000000000001,-950 L732.0,-950 L702.0,-975.0 L732.0,-1000 Z" fill="#d3c9c1" fill-opacity="0.8" stroke="#d3c9c1" stroke-width="4" />
<text x="702.0" y="-1010" font-size="20" fill="black" dy="0em">94</text>
<path d="M867.8000000000001,-1000 L918.6,-1000 L918.6,-950 L867.8000000000001,-950 L837.8000000000001,-975.0 L867.8000000000001,-1000 Z" fill="#d3c9c1" fill-opacity="0.8" stroke="#d3c9c1" stroke-width="4" />
<text x="837.8000000000001" y="-920" font-size="20" fill="black" dy="0em">95</text>
<path d="M958.4000000000001,-1000 L990.0,-1000 L990.0,-950 L958.4000000000001,-950 L928.4000000000001,-975.0 L958.4000000000001,-1000 Z" fill="#d3c9c1" fill-opacity="0.8" stroke="#d3c9c1" stroke-width="4" />
<text x="928.4000000000001" y="-1010" font-size="20" fill="black" dy="0em">96</text>
<path d="M1150.6000000000001,-1000 L1455.8000000000002,-1000 L1485.8000000000002,-975.0 L1455.8000000000002,-950 L1150.6000000000001,-950 L1150.6000000000001,-1000 Z" fill="#d3c9c1" fill-opacity="0.8" stroke="#d3c9c1" stroke-width="4" />
<text x="1150.6000000000001" y="-920" font-size="20" fill="black" dy="0em">97</text>
<path d="M1495.4,-1000 L1628.4,-1000 L1658.4,-975.0 L1628.4,-950 L1495.4,-950 L1495.4,-1000 Z" fill="#d3c9c1" fill-opacity="0.8" stroke="#d3c9c1" stroke-width="4" />
<text x="1495.4" y="-1010" font-size="20" fill="black" dy="0em">98</text>
<path d="M1659.2,-1000 L1842.0,-1000 L1872.0,-975.0 L1842.0,-950 L1659.2,-950 L1659.2,-1000 Z" fill="#d3c9c1" fill-opacity="0.8" stroke="#d3c9c1" stroke-width="4" />
<text x="1659.2" y="-920" font-size="20" fill="black" dy="0em">99</text>
<path d="M1898.4,-1000 L1951.0,-1000 L1951.0,-950 L1898.4,-950 L1868.4,-975.0 L1898.4,-1000 Z" fill="#ff80e6" fill-opacity="0.3" stroke="#ff80e6" stroke-width="4" />
<text x="1868.4" y="-1010" font-size="26" fill="black" dy="0em">(Csa3)</text>
<path d="M1010.2,-1000 L1081.6000000000001,-1000 L1081.6000000000001,-950 L1010.2,-950 L1010.2,-1000 Z" fill="white" stroke="white" stroke-width="4" />
<path d="M1010.2,-1000 L1016.6909090909091,-1000 L1016.6909090909091,-950 L1010.2,-950 L1010.2,-1000 Z" fill="black" />
<path d="M1016.6909090909091,-1000 L1023.1818181818182,-1000 L1023.1818181818182,-950 L1016.6909090909091,-950 L1016.6909090909091,-1000 Z" fill="#f0f0f0" />
<path d="M1023.1818181818182,-1000 L1029.6727272727273,-1000 L1029.6727272727273,-950 L1023.1818181818182,-950 L1023.1818181818182,-1000 Z" fill="black" />
<path d="M1029.6727272727273,-1000 L1036.1636363636364,-1000 L1036.1636363636364,-950 L1029.6727272727273,-950 L1029.6727272727273,-1000 Z" fill="#f0f0f0" />
<path d="M1036.1636363636364,-1000 L1042.6545454545455,-1000 L1042.6545454545455,-950 L1036.1636363636364,-950 L1036.1636363636364,-1000 Z" fill="black" />
<path d="M1042.6545454545455,-1000 L1049.1454545454546,-1000 L1049.1454545454546,-950 L1042.6545454545455,-950 L1042.6545454545455,-1000 Z" fill="#f0f0f0" />
<path d="M1049.1454545454546,-1000 L1055.6363636363637,-1000 L1055.6363636363637,-950 L1049.1454545454546,-950 L1049.1454545454546,-1000 Z" fill="black" />
<path d="M1055.6363636363637,-1000 L1062.1272727272728,-1000 L1062.1272727272728,-950 L1055.6363636363637,-950 L1055.6363636363637,-1000 Z" fill="#f0f0f0" />
<path d="M1062.1272727272728,-1000 L1068.618181818182,-1000 L1068.618181818182,-950 L1062.1272727272728,-950 L1062.1272727272728,-1000 Z" fill="black" />
<path d="M1068.618181818182,-1000 L1075.109090909091,-1000 L1075.109090909091,-950 L1068.618181818182,-950 L1068.618181818182,-1000 Z" fill="#f0f0f0" />
<path d="M1075.109090909091,-1000 L1081.6000000000001,-1000 L1081.6000000000001,-950 L1075.109090909091,-950 L1075.109090909091,-1000 Z" fill="black" />
<text x="1010.2" y="-1010" font-size="26" fill="black" dy="0em">CRISPR</text>
<text x="16.0" y="-1060" font-size="38" fill="black" dy="0em">Unknown: CP000816_1 (89012-89369)</text>
<path d="M59.6,-800 L88.80000000000001,-800 L118.80000000000001,-775.0 L88.80000000000001,-750 L59.6,-750 L59.6,-800 Z" fill="#d3c9c1" fill-opacity="0.8" stroke="#d3c9c1" stroke-width="4" />
<text x="59.6" y="-810" font-size="20" fill="black" dy="0em">304</text>
<path d="M147.0,-800 L343.0,-800 L343.0,-750 L147.0,-750 L117.0,-775.0 L147.0,-800 Z" fill="#d3c9c1" fill-opacity="0.8" stroke="#d3c9c1" stroke-width="4" />
<text x="117.0" y="-720" font-size="20" fill="black" dy="0em">305</text>
<path d="M374.20000000000005,-800 L459.20000000000005,-800 L459.20000000000005,-750 L374.20000000000005,-750 L344.20000000000005,-775.0 L374.20000000000005,-800 Z" fill="#ff80e6" fill-opacity="0.3" stroke="#ff80e6" stroke-width="4" />
<text x="344.20000000000005" y="-810" font-size="26" fill="black" dy="0em">(Csx22)</text>
<path d="M471.40000000000003,-800 L657.2,-800 L687.2,-775.0 L657.2,-750 L471.40000000000003,-750 L471.40000000000003,-800 Z" fill="#d3c9c1" fill-opacity="0.8" stroke="#d3c9c1" stroke-width="4" />
<text x="471.40000000000003" y="-720" font-size="20" fill="black" dy="0em">307</text>
<path d="M709.4000000000001,-800 L734.4000000000001,-800 L734.4000000000001,-750 L709.4000000000001,-750 L679.4000000000001,-775.0 L709.4000000000001,-800 Z" fill="#d3c9c1" fill-opacity="0.8" stroke="#d3c9c1" stroke-width="4" />
<text x="679.4000000000001" y="-810" font-size="20" fill="black" dy="0em">308</text>
<path d="M772.8000000000001,-800 L844.0,-800 L844.0,-750 L772.8000000000001,-750 L742.8000000000001,-775.0 L772.8000000000001,-800 Z" fill="#d3c9c1" fill-opacity="0.8" stroke="#d3c9c1" stroke-width="4" />
<text x="742.8000000000001" y="-720" font-size="20" fill="black" dy="0em">309</text>
<path d="M881.2,-800 L949.4000000000001,-800 L949.4000000000001,-750 L881.2,-750 L851.2,-775.0 L881.2,-800 Z" fill="#d3c9c1" fill-opacity="0.8" stroke="#d3c9c1" stroke-width="4" />
<text x="851.2" y="-810" font-size="20" fill="black" dy="0em">310</text>
<path d="M1210.0,-800 L1340.0,-800 L1370.0,-775.0 L1340.0,-750 L1210.0,-750 L1210.0,-800 Z" fill="#d3c9c1" fill-opacity="0.8" stroke="#d3c9c1" stroke-width="4" />
<text x="1210.0" y="-720" font-size="20" fill="black" dy="0em">311</text>
<path d="M1399.4,-800 L1556.4,-800 L1556.4,-750 L1399.4,-750 L1369.4,-775.0 L1399.4,-800 Z" fill="#d3c9c1" fill-opacity="0.8" stroke="#d3c9c1" stroke-width="4" />
<text x="1369.4" y="-810" font-size="20" fill="black" dy="0em">312</text>
<path d="M1570.2,-800 L1589.2,-800 L1619.2,-775.0 L1589.2,-750 L1570.2,-750 L1570.2,-800 Z" fill="#d3c9c1" fill-opacity="0.8" stroke="#d3c9c1" stroke-width="4" />
<text x="1570.2" y="-720" font-size="20" fill="black" dy="0em">313</text>
<path d="M1618.6000000000001,-800 L1827.2,-800 L1857.2,-775.0 L1827.2,-750 L1618.6000000000001,-750 L1618.6000000000001,-800 Z" fill="#d3c9c1" fill-opacity="0.8" stroke="#d3c9c1" stroke-width="4" />
<text x="1618.6000000000001" y="-810" font-size="20" fill="black" dy="0em">314</text>
<path d="M1886.6000000000001,-800 L1926.6000000000001,-800 L1926.6000000000001,-750 L1886.6000000000001,-750 L1856.6000000000001,-775.0 L1886.6000000000001,-800 Z" fill="#d3c9c1" fill-opacity="0.8" stroke="#d3c9c1" stroke-width="4" />
<text x="1856.6000000000001" y="-720" font-size="20" fill="black" dy="0em">315</text>
<path d="M1010.2,-800 L1135.4,-800 L1135.4,-750 L1010.2,-750 L1010.2,-800 Z" fill="white" stroke="white" stroke-width="4" />
<path d="M1010.2,-800 L1016.7894736842105,-800 L1016.7894736842105,-750 L1010.2,-750 L1010.2,-800 Z" fill="black" />
<path d="M1016.7894736842105,-800 L1023.378947368421,-800 L1023.378947368421,-750 L1016.7894736842105,-750 L1016.7894736842105,-800 Z" fill="#f0f0f0" />
<path d="M1023.378947368421,-800 L1029.9684210526316,-800 L1029.9684210526316,-750 L1023.378947368421,-750 L1023.378947368421,-800 Z" fill="black" />
<path d="M1029.9684210526316,-800 L1036.5578947368422,-800 L1036.5578947368422,-750 L1029.9684210526316,-750 L1029.9684210526316,-800 Z" fill="#f0f0f0" />
<path d="M1036.5578947368422,-800 L1043.1473684210528,-800 L1043.1473684210528,-750 L1036.5578947368422,-750 L1036.5578947368422,-800 Z" fill="black" />
<path d="M1043.1473684210528,-800 L1049.7368421052633,-800 L1049.7368421052633,-750 L1043.1473684210528,-750 L1043.1473684210528,-800 Z" fill="#f0f0f0" />
<path d="M1049.7368421052633,-800 L1056.326315789474,-800 L1056.326315789474,-750 L1049.7368421052633,-750 L1049.7368421052633,-800 Z" fill="black" />
<path d="M1056.326315789474,-800 L1062.9157894736845,-800 L1062.9157894736845,-750 L1056.326315789474,-750 L1056.326315789474,-800 Z" fill="#f0f0f0" />
<path d="M1062.9157894736845,-800 L1069.5052631578951,-800 L1069.5052631578951,-750 L1062.9157894736845,-750 L1062.9157894736845,-800 Z" fill="black" />
<path d="M1069.5052631578951,-800 L1076.0947368421057,-800 L1076.0947368421057,-750 L1069.5052631578951,-750 L1069.5052631578951,-800 Z" fill="#f0f0f0" />
<path d="M1076.0947368421057,-800 L1082.6842105263163,-800 L1082.6842105263163,-750 L1076.0947368421057,-750 L1076.0947368421057,-800 Z" fill="black" />
<path d="M1082.6842105263163,-800 L1089.2736842105269,-800 L1089.2736842105269,-750 L1082.6842105263163,-750 L1082.6842105263163,-800 Z" fill="#f0f0f0" />
<path d="M1089.2736842105269,-800 L1095.8631578947375,-800 L1095.8631578947375,-750 L1089.2736842105269,-750 L1089.2736842105269,-800 Z" fill="black" />
<path d="M1095.8631578947375,-800 L1102.452631578948,-800 L1102.452631578948,-750 L1095.8631578947375,-750 L1095.8631578947375,-800 Z" fill="#f0f0f0" />
<path d="M1102.452631578948,-800 L1109.0421052631586,-800 L1109.0421052631586,-750 L1102.452631578948,-750 L1102.452631578948,-800 Z" fill="black" />
<path d="M1109.0421052631586,-800 L1115.6315789473692,-800 L1115.6315789473692,-750 L1109.0421052631586,-750 L1109.0421052631586,-800 Z" fill="#f0f0f0" />
<path d="M1115.6315789473692,-800 L1122.2210526315798,-800 L1122.2210526315798,-750 L1115.6315789473692,-750 L1115.6315789473692,-800 Z" fill="black" />
<path d="M1122.2210526315798,-800 L1128.8105263157904,-800 L1128.8105263157904,-750 L1122.2210526315798,-750 L1122.2210526315798,-800 Z" fill="#f0f0f0" />
<path d="M1128.8105263157904,-800 L1135.400000000001,-800 L1135.400000000001,-750 L1128.8105263157904,-750 L1128.8105263157904,-800 Z" fill="black" />
<text x="1010.2" y="-810" font-size="26" fill="black" dy="0em">CRISPR</text>
<text x="16.0" y="-860" font-size="38" fill="black" dy="0em">Unknown: CP000816_2 (260379-261005)</text>
<path d="M313.0,-600 L341.6,-600 L371.6,-575.0 L341.6,-550 L313.0,-550 L313.0,-600 Z" fill="#d3c9c1" fill-opacity="0.8" stroke="#d3c9c1" stroke-width="4" />
<text x="313.0" y="-610" font-size="20" fill="black" dy="0em">1053</text>
<path d="M371.0,-600 L410.40000000000003,-600 L440.40000000000003,-575.0 L410.40000000000003,-550 L371.0,-550 L371.0,-600 Z" fill="#d3c9c1" fill-opacity="0.8" stroke="#d3c9c1" stroke-width="4" />
<text x="371.0" y="-520" font-size="20" fill="black" dy="0em">1054</text>
<path d="M483.0,-600 L497.20000000000005,-600 L527.2,-575.0 L497.20000000000005,-550 L483.0,-550 L483.0,-600 Z" fill="#d3c9c1" fill-opacity="0.8" stroke="#d3c9c1" stroke-width="4" />
<text x="483.0" y="-610" font-size="20" fill="black" dy="0em">1055</text>
<path d="M535.4,-600 L552.0,-600 L582.0,-575.0 L552.0,-550 L535.4,-550 L535.4,-600 Z" fill="#d3c9c1" fill-opacity="0.8" stroke="#d3c9c1" stroke-width="4" />
<text x="535.4" y="-520" font-size="20" fill="black" dy="0em">1056</text>
<path d="M614.2,-600 L621.2,-600 L651.2,-575.0 L621.2,-550 L614.2,-550 L614.2,-600 Z" fill="#d3c9c1" fill-opacity="0.8" stroke="#d3c9c1" stroke-width="4" />
<text x="614.2" y="-610" font-size="20" fill="black" dy="0em">1057</text>
<path d="M680.2,-600 L695.6,-600 L725.6,-575.0 L695.6,-550 L680.2,-550 L680.2,-600 Z" fill="#d3c9c1" fill-opacity="0.8" stroke="#d3c9c1" stroke-width="4" />
<text x="680.2" y="-520" font-size="20" fill="black" dy="0em">1058</text>
<path d="M756.8000000000001,-600 L901.2,-600 L901.2,-550 L756.8000000000001,-550 L726.8000000000001,-575.0 L756.8000000000001,-600 Z" fill="#d3c9c1" fill-opacity="0.8" stroke="#d3c9c1" stroke-width="4" />
<text x="726.8000000000001" y="-610" font-size="20" fill="black" dy="0em">1059</text>
<path d="M1139.6000000000001,-600 L1546.2,-600 L1576.2,-575.0 L1546.2,-550 L1139.6000000000001,-550 L1139.6000000000001,-600 Z" fill="#d3c9c1" fill-opacity="0.8" stroke="#d3c9c1" stroke-width="4" />
<text x="1139.6000000000001" y="-520" font-size="20" fill="black" dy="0em">1060</text>
<path d="M1588.4,-600 L1870.8000000000002,-600 L1900.8000000000002,-575.0 L1870.8000000000002,-550 L1588.4,-550 L1588.4,-600 Z" fill="#d3c9c1" fill-opacity="0.8" stroke="#d3c9c1" stroke-width="4" />
<text x="1588.4" y="-610" font-size="20" fill="black" dy="0em">1061</text>
<path d="M1932.6000000000001,-600 L2033.2,-600 L2033.2,-550 L1932.6000000000001,-550 L1902.6000000000001,-575.0 L1932.6000000000001,-600 Z" fill="#d3c9c1" fill-opacity="0.8" stroke="#d3c9c1" stroke-width="4" />
<text x="1902.6000000000001" y="-520" font-size="20" fill="black" dy="0em">1062</text>
<path d="M1010.2,-600 L1095.0,-600 L1095.0,-550 L1010.2,-550 L1010.2,-600 Z" fill="white" stroke="white" stroke-width="4" />
<path d="M1010.2,-600 L1016.723076923077,-600 L1016.723076923077,-550 L1010.2,-550 L1010.2,-600 Z" fill="black" />
<path d="M1016.723076923077,-600 L1023.2461538461539,-600 L1023.2461538461539,-550 L1016.723076923077,-550 L1016.723076923077,-600 Z" fill="#f0f0f0" />
<path d="M1023.2461538461539,-600 L1029.7692307692307,-600 L1029.7692307692307,-550 L1023.2461538461539,-550 L1023.2461538461539,-600 Z" fill="black" />
<path d="M1029.7692307692307,-600 L1036.2923076923075,-600 L1036.2923076923075,-550 L1029.7692307692307,-550 L1029.7692307692307,-600 Z" fill="#f0f0f0" />
<path d="M1036.2923076923075,-600 L1042.8153846153843,-600 L1042.8153846153843,-550 L1036.2923076923075,-550 L1036.2923076923075,-600 Z" fill="black" />
<path d="M1042.8153846153843,-600 L1049.3384615384612,-600 L1049.3384615384612,-550 L1042.8153846153843,-550 L1042.8153846153843,-600 Z" fill="#f0f0f0" />
<path d="M1049.3384615384612,-600 L1055.861538461538,-600 L1055.861538461538,-550 L1049.3384615384612,-550 L1049.3384615384612,-600 Z" fill="black" />
<path d="M1055.861538461538,-600 L1062.3846153846148,-600 L1062.3846153846148,-550 L1055.861538461538,-550 L1055.861538461538,-600 Z" fill="#f0f0f0" />
<path d="M1062.3846153846148,-600 L1068.9076923076916,-600 L1068.9076923076916,-550 L1062.3846153846148,-550 L1062.3846153846148,-600 Z" fill="black" />
<path d="M1068.9076923076916,-600 L1075.4307692307684,-600 L1075.4307692307684,-550 L1068.9076923076916,-550 L1068.9076923076916,-600 Z" fill="#f0f0f0" />
<path d="M1075.4307692307684,-600 L1081.9538461538452,-600 L1081.9538461538452,-550 L1075.4307692307684,-550 L1075.4307692307684,-600 Z" fill="black" />
<path d="M1081.9538461538452,-600 L1088.476923076922,-600 L1088.476923076922,-550 L1081.9538461538452,-550 L1081.9538461538452,-600 Z" fill="#f0f0f0" />
<path d="M1088.476923076922,-600 L1094.9999999999989,-600 L1094.9999999999989,-550 L1088.476923076922,-550 L1088.476923076922,-600 Z" fill="black" />
<text x="1010.2" y="-610" font-size="26" fill="black" dy="0em">CRISPR: III-B</text>
<text x="16.0" y="-660" font-size="38" fill="black" dy="0em">III-B: CP000816_4 (915468-915892)</text>
<path d="M148.4,-400 L276.0,-400 L276.0,-350 L148.4,-350 L118.4,-375.0 L148.4,-400 Z" fill="#d3c9c1" fill-opacity="0.8" stroke="#d3c9c1" stroke-width="4" />
<text x="118.4" y="-410" font-size="20" fill="black" dy="0em">1097</text>
<path d="M297.6,-400 L370.6,-400 L370.6,-350 L297.6,-350 L267.6,-375.0 L297.6,-400 Z" fill="#ff80e6" fill-opacity="0.3" stroke="#ff80e6" stroke-width="4" />
<text x="267.6" y="-320" font-size="26" fill="black" dy="0em">(Csx3)</text>
<path d="M585.2,-400 L593.4,-400 L593.4,-350 L585.2,-350 L555.2,-375.0 L585.2,-400 Z" fill="#d3c9c1" fill-opacity="0.8" stroke="#d3c9c1" stroke-width="4" />
<text x="555.2" y="-410" font-size="20" fill="black" dy="0em">1099</text>
<path d="M648.2,-400 L663.6,-400 L693.6,-375.0 L663.6,-350 L648.2,-350 L648.2,-400 Z" fill="#d3c9c1" fill-opacity="0.8" stroke="#d3c9c1" stroke-width="4" />
<text x="648.2" y="-320" font-size="20" fill="black" dy="0em">1100</text>
<path d="M706.6,-400 L735.2,-400 L765.2,-375.0 L735.2,-350 L706.6,-350 L706.6,-400 Z" fill="#d3c9c1" fill-opacity="0.8" stroke="#d3c9c1" stroke-width="4" />
<text x="706.6" y="-410" font-size="20" fill="black" dy="0em">1101</text>
<path d="M1128.2,-400 L1264.8000000000002,-400 L1264.8000000000002,-350 L1128.2,-350 L1098.2,-375.0 L1128.2,-400 Z" fill="#dd1424" fill-opacity="0.3" stroke="#dd1424" stroke-width="4" />
<text x="1098.2" y="-320" font-size="26" fill="black" dy="0em">(Cas6)</text>
<path d="M1287.0,-400 L1325.8000000000002,-400 L1325.8000000000002,-350 L1287.0,-350 L1257.0,-375.0 L1287.0,-400 Z" fill="#d3c9c1" fill-opacity="0.8" stroke="#d3c9c1" stroke-width="4" />
<text x="1257.0" y="-410" font-size="20" fill="black" dy="0em">1103</text>
<path d="M1347.8000000000002,-400 L1390.2,-400 L1390.2,-350 L1347.8000000000002,-350 L1317.8000000000002,-375.0 L1347.8000000000002,-400 Z" fill="#d3c9c1" fill-opacity="0.8" stroke="#d3c9c1" stroke-width="4" />
<text x="1317.8000000000002" y="-320" font-size="20" fill="black" dy="0em">1104</text>
<path d="M1409.6000000000001,-400 L1566.0,-400 L1596.0,-375.0 L1566.0,-350 L1409.6000000000001,-350 L1409.6000000000001,-400 Z" fill="#5b5ea6" fill-opacity="0.3" stroke="#5b5ea6" stroke-width="4" />
<text x="1409.6000000000001" y="-410" font-size="26" fill="black" dy="0em">(Cas1)</text>
<path d="M1642.0,-400 L1933.0,-400 L1933.0,-350 L1642.0,-350 L1642.0,-400 Z" fill="white" stroke="white" stroke-width="4" />
<path d="M1642.0,-400 L1648.1914893617022,-400 L1648.1914893617022,-350 L1642.0,-350 L1642.0,-400 Z" fill="black" />
<path d="M1648.1914893617022,-400 L1654.3829787234044,-400 L1654.3829787234044,-350 L1648.1914893617022,-350 L1648.1914893617022,-400 Z" fill="#f0f0f0" />
<path d="M1654.3829787234044,-400 L1660.5744680851067,-400 L1660.5744680851067,-350 L1654.3829787234044,-350 L1654.3829787234044,-400 Z" fill="black" />
<path d="M1660.5744680851067,-400 L1666.765957446809,-400 L1666.765957446809,-350 L1660.5744680851067,-350 L1660.5744680851067,-400 Z" fill="#f0f0f0" />
<path d="M1666.765957446809,-400 L1672.9574468085111,-400 L1672.9574468085111,-350 L1666.765957446809,-350 L1666.765957446809,-400 Z" fill="black" />
<path d="M1672.9574468085111,-400 L1679.1489361702133,-400 L1679.1489361702133,-350 L1672.9574468085111,-350 L1672.9574468085111,-400 Z" fill="#f0f0f0" />
<path d="M1679.1489361702133,-400 L1685.3404255319156,-400 L1685.3404255319156,-350 L1679.1489361702133,-350 L1679.1489361702133,-400 Z" fill="black" />
<path d="M1685.3404255319156,-400 L1691.5319148936178,-400 L1691.5319148936178,-350 L1685.3404255319156,-350 L1685.3404255319156,-400 Z" fill="#f0f0f0" />
<path d="M1691.5319148936178,-400 L1697.72340425532,-400 L1697.72340425532,-350 L1691.5319148936178,-350 L1691.5319148936178,-400 Z" fill="black" />
<path d="M1697.72340425532,-400 L1703.9148936170222,-400 L1703.9148936170222,-350 L1697.72340425532,-350 L1697.72340425532,-400 Z" fill="#f0f0f0" />
<path d="M1703.9148936170222,-400 L1710.1063829787245,-400 L1710.1063829787245,-350 L1703.9148936170222,-350 L1703.9148936170222,-400 Z" fill="black" />
<path d="M1710.1063829787245,-400 L1716.2978723404267,-400 L1716.2978723404267,-350 L1710.1063829787245,-350 L1710.1063829787245,-400 Z" fill="#f0f0f0" />
<path d="M1716.2978723404267,-400 L1722.489361702129,-400 L1722.489361702129,-350 L1716.2978723404267,-350 L1716.2978723404267,-400 Z" fill="black" />
<path d="M1722.489361702129,-400 L1728.6808510638311,-400 L1728.6808510638311,-350 L1722.489361702129,-350 L1722.489361702129,-400 Z" fill="#f0f0f0" />
<path d="M1728.6808510638311,-400 L1734.8723404255334,-400 L1734.8723404255334,-350 L1728.6808510638311,-350 L1728.6808510638311,-400 Z" fill="black" />
<path d="M1734.8723404255334,-400 L1741.0638297872356,-400 L1741.0638297872356,-350 L1734.8723404255334,-350 L1734.8723404255334,-400 Z" fill="#f0f0f0" />
<path d="M1741.0638297872356,-400 L1747.2553191489378,-400 L1747.2553191489378,-350 L1741.0638297872356,-350 L1741.0638297872356,-400 Z" fill="black" />
<path d="M1747.2553191489378,-400 L1753.44680851064,-400 L1753.44680851064,-350 L1747.2553191489378,-350 L1747.2553191489378,-400 Z" fill="#f0f0f0" />
<path d="M1753.44680851064,-400 L1759.6382978723423,-400 L1759.6382978723423,-350 L1753.44680851064,-350 L1753.44680851064,-400 Z" fill="black" />
<path d="M1759.6382978723423,-400 L1765.8297872340445,-400 L1765.8297872340445,-350 L1759.6382978723423,-350 L1759.6382978723423,-400 Z" fill="#f0f0f0" />
<path d="M1765.8297872340445,-400 L1772.0212765957467,-400 L1772.0212765957467,-350 L1765.8297872340445,-350 L1765.8297872340445,-400 Z" fill="black" />
<path d="M1772.0212765957467,-400 L1778.212765957449,-400 L1778.212765957449,-350 L1772.0212765957467,-350 L1772.0212765957467,-400 Z" fill="#f0f0f0" />
<path d="M1778.212765957449,-400 L1784.4042553191512,-400 L1784.4042553191512,-350 L1778.212765957449,-350 L1778.212765957449,-400 Z" fill="black" />
<path d="M1784.4042553191512,-400 L1790.5957446808534,-400 L1790.5957446808534,-350 L1784.4042553191512,-350 L1784.4042553191512,-400 Z" fill="#f0f0f0" />
<path d="M1790.5957446808534,-400 L1796.7872340425556,-400 L1796.7872340425556,-350 L1790.5957446808534,-350 L1790.5957446808534,-400 Z" fill="black" />
<path d="M1796.7872340425556,-400 L1802.9787234042578,-400 L1802.9787234042578,-350 L1796.7872340425556,-350 L1796.7872340425556,-400 Z" fill="#f0f0f0" />
<path d="M1802.9787234042578,-400 L1809.17021276596,-400 L1809.17021276596,-350 L1802.9787234042578,-350 L1802.9787234042578,-400 Z" fill="black" />
<path d="M1809.17021276596,-400 L1815.3617021276623,-400 L1815.3617021276623,-350 L1809.17021276596,-350 L1809.17021276596,-400 Z" fill="#f0f0f0" />
<path d="M1815.3617021276623,-400 L1821.5531914893645,-400 L1821.5531914893645,-350 L1815.3617021276623,-350 L1815.3617021276623,-400 Z" fill="black" />
<path d="M1821.5531914893645,-400 L1827.7446808510667,-400 L1827.7446808510667,-350 L1821.5531914893645,-350 L1821.5531914893645,-400 Z" fill="#f0f0f0" />
<path d="M1827.7446808510667,-400 L1833.936170212769,-400 L1833.936170212769,-350 L1827.7446808510667,-350 L1827.7446808510667,-400 Z" fill="black" />
<path d="M1833.936170212769,-400 L1840.1276595744712,-400 L1840.1276595744712,-350 L1833.936170212769,-350 L1833.936170212769,-400 Z" fill="#f0f0f0" />
<path d="M1840.1276595744712,-400 L1846.3191489361734,-400 L1846.3191489361734,-350 L1840.1276595744712,-350 L1840.1276595744712,-400 Z" fill="black" />
<path d="M1846.3191489361734,-400 L1852.5106382978756,-400 L1852.5106382978756,-350 L1846.3191489361734,-350 L1846.3191489361734,-400 Z" fill="#f0f0f0" />
<path d="M1852.5106382978756,-400 L1858.7021276595779,-400 L1858.7021276595779,-350 L1852.5106382978756,-350 L1852.5106382978756,-400 Z" fill="black" />
<path d="M1858.7021276595779,-400 L1864.89361702128,-400 L1864.89361702128,-350 L1858.7021276595779,-350 L1858.7021276595779,-400 Z" fill="#f0f0f0" />
<path d="M1864.89361702128,-400 L1871.0851063829823,-400 L1871.0851063829823,-350 L1864.89361702128,-350 L1864.89361702128,-400 Z" fill="black" />
<path d="M1871.0851063829823,-400 L1877.2765957446845,-400 L1877.2765957446845,-350 L1871.0851063829823,-350 L1871.0851063829823,-400 Z" fill="#f0f0f0" />
<path d="M1877.2765957446845,-400 L1883.4680851063868,-400 L1883.4680851063868,-350 L1877.2765957446845,-350 L1877.2765957446845,-400 Z" fill="black" />
<path d="M1883.4680851063868,-400 L1889.659574468089,-400 L1889.659574468089,-350 L1883.4680851063868,-350 L1883.4680851063868,-400 Z" fill="#f0f0f0" />
<path d="M1889.659574468089,-400 L1895.8510638297912,-400 L1895.8510638297912,-350 L1889.659574468089,-350 L1889.659574468089,-400 Z" fill="black" />
<path d="M1895.8510638297912,-400 L1902.0425531914934,-400 L1902.0425531914934,-350 L1895.8510638297912,-350 L1895.8510638297912,-400 Z" fill="#f0f0f0" />
<path d="M1902.0425531914934,-400 L1908.2340425531956,-400 L1908.2340425531956,-350 L1902.0425531914934,-350 L1902.0425531914934,-400 Z" fill="black" />
<path d="M1908.2340425531956,-400 L1914.4255319148979,-400 L1914.4255319148979,-350 L1908.2340425531956,-350 L1908.2340425531956,-400 Z" fill="#f0f0f0" />
<path d="M1914.4255319148979,-400 L1920.6170212766,-400 L1920.6170212766,-350 L1914.4255319148979,-350 L1914.4255319148979,-400 Z" fill="black" />
<path d="M1920.6170212766,-400 L1926.8085106383023,-400 L1926.8085106383023,-350 L1920.6170212766,-350 L1920.6170212766,-400 Z" fill="#f0f0f0" />
<path d="M1926.8085106383023,-400 L1933.0000000000045,-400 L1933.0000000000045,-350 L1926.8085106383023,-350 L1926.8085106383023,-400 Z" fill="black" />
<text x="1642.0" y="-410" font-size="26" fill="black" dy="0em">CRISPR</text>
<path d="M1010.2,-400 L1082.6000000000001,-400 L1082.6000000000001,-350 L1010.2,-350 L1010.2,-400 Z" fill="white" stroke="white" stroke-width="4" />
<path d="M1010.2,-400 L1016.7818181818183,-400 L1016.7818181818183,-350 L1010.2,-350 L1010.2,-400 Z" fill="black" />
<path d="M1016.7818181818183,-400 L1023.3636363636365,-400 L1023.3636363636365,-350 L1016.7818181818183,-350 L1016.7818181818183,-400 Z" fill="#f0f0f0" />
<path d="M1023.3636363636365,-400 L1029.9454545454546,-400 L1029.9454545454546,-350 L1023.3636363636365,-350 L1023.3636363636365,-400 Z" fill="black" />
<path d="M1029.9454545454546,-400 L1036.5272727272727,-400 L1036.5272727272727,-350 L1029.9454545454546,-350 L1029.9454545454546,-400 Z" fill="#f0f0f0" />
<path d="M1036.5272727272727,-400 L1043.1090909090908,-400 L1043.1090909090908,-350 L1036.5272727272727,-350 L1036.5272727272727,-400 Z" fill="black" />
<path d="M1043.1090909090908,-400 L1049.690909090909,-400 L1049.690909090909,-350 L1043.1090909090908,-350 L1043.1090909090908,-400 Z" fill="#f0f0f0" />
<path d="M1049.690909090909,-400 L1056.272727272727,-400 L1056.272727272727,-350 L1049.690909090909,-350 L1049.690909090909,-400 Z" fill="black" />
<path d="M1056.272727272727,-400 L1062.8545454545451,-400 L1062.8545454545451,-350 L1056.272727272727,-350 L1056.272727272727,-400 Z" fill="#f0f0f0" />
<path d="M1062.8545454545451,-400 L1069.4363636363632,-400 L1069.4363636363632,-350 L1062.8545454545451,-350 L1062.8545454545451,-400 Z" fill="black" />
<path d="M1069.4363636363632,-400 L1076.0181818181813,-400 L1076.0181818181813,-350 L1069.4363636363632,-350 L1069.4363636363632,-400 Z" fill="#f0f0f0" />
<path d="M1076.0181818181813,-400 L1082.5999999999995,-400 L1082.5999999999995,-350 L1076.0181818181813,-350 L1076.0181818181813,-400 Z" fill="black" />
<text x="1010.2" y="-410" font-size="26" fill="black" dy="0em">CRISPR</text>
<text x="16.0" y="-460" font-size="38" fill="black" dy="0em">Unknown: CP000816_5 (952490-952852)</text>
<path d="M16.4,-200 L31.800000000000004,-200 L61.800000000000004,-175.0 L31.800000000000004,-150 L16.4,-150 L16.4,-200 Z" fill="#d3c9c1" fill-opacity="0.8" stroke="#d3c9c1" stroke-width="4" />
<text x="16.4" y="-210" font-size="20" fill="black" dy="0em">1100</text>
<path d="M74.8,-200 L103.4,-200 L133.4,-175.0 L103.4,-150 L74.8,-150 L74.8,-200 Z" fill="#d3c9c1" fill-opacity="0.8" stroke="#d3c9c1" stroke-width="4" />
<text x="74.8" y="-120" font-size="20" fill="black" dy="0em">1101</text>
<path d="M496.40000000000003,-200 L633.0,-200 L633.0,-150 L496.40000000000003,-150 L466.40000000000003,-175.0 L496.40000000000003,-200 Z" fill="#dd1424" fill-opacity="0.3" stroke="#dd1424" stroke-width="4" />
<text x="466.40000000000003" y="-210" font-size="26" fill="black" dy="0em">(Cas6)</text>
<path d="M655.2,-200 L694.0,-200 L694.0,-150 L655.2,-150 L625.2,-175.0 L655.2,-200 Z" fill="#d3c9c1" fill-opacity="0.8" stroke="#d3c9c1" stroke-width="4" />
<text x="625.2" y="-120" font-size="20" fill="black" dy="0em">1103</text>
<path d="M716.0,-200 L758.4000000000001,-200 L758.4000000000001,-150 L716.0,-150 L686.0,-175.0 L716.0,-200 Z" fill="#d3c9c1" fill-opacity="0.8" stroke="#d3c9c1" stroke-width="4" />
<text x="686.0" y="-210" font-size="20" fill="black" dy="0em">1104</text>
<path d="M777.8000000000001,-200 L934.2,-200 L964.2,-175.0 L934.2,-150 L777.8000000000001,-150 L777.8000000000001,-200 Z" fill="#5b5ea6" fill-opacity="0.3" stroke="#5b5ea6" stroke-width="4" />
<text x="777.8000000000001" y="-120" font-size="26" fill="black" dy="0em">(Cas1)</text>
<path d="M1365.4,-200 L1630.4,-200 L1630.4,-150 L1365.4,-150 L1335.4,-175.0 L1365.4,-200 Z" fill="#d3c9c1" fill-opacity="0.8" stroke="#d3c9c1" stroke-width="4" />
<text x="1335.4" y="-210" font-size="20" fill="black" dy="0em">1106</text>
<path d="M1691.8000000000002,-200 L1711.4,-200 L1711.4,-150 L1691.8000000000002,-150 L1661.8000000000002,-175.0 L1691.8000000000002,-200 Z" fill="#d3c9c1" fill-opacity="0.8" stroke="#d3c9c1" stroke-width="4" />
<text x="1661.8000000000002" y="-120" font-size="20" fill="black" dy="0em">1107</text>
<path d="M1741.4,-200 L1816.8000000000002,-200 L1816.8000000000002,-150 L1741.4,-150 L1711.4,-175.0 L1741.4,-200 Z" fill="#d3c9c1" fill-opacity="0.8" stroke="#d3c9c1" stroke-width="4" />
<text x="1711.4" y="-210" font-size="20" fill="black" dy="0em">1108</text>
<path d="M1846.2,-200 L1989.4,-200 L1989.4,-150 L1846.2,-150 L1816.2,-175.0 L1846.2,-200 Z" fill="#d3c9c1" fill-opacity="0.8" stroke="#d3c9c1" stroke-width="4" />
<text x="1816.2" y="-120" font-size="20" fill="black" dy="0em">1109</text>
<path d="M2018.8000000000002,-200 L2215.4,-200 L2215.4,-150 L2018.8000000000002,-150 L1988.8000000000002,-175.0 L2018.8000000000002,-200 Z" fill="#d3c9c1" fill-opacity="0.8" stroke="#d3c9c1" stroke-width="4" />
<text x="1988.8000000000002" y="-210" font-size="20" fill="black" dy="0em">1110</text>
<path d="M378.40000000000003,-200 L450.8,-200 L450.8,-150 L378.40000000000003,-150 L378.40000000000003,-200 Z" fill="white" stroke="white" stroke-width="4" />
<path d="M378.40000000000003,-200 L384.9818181818182,-200 L384.9818181818182,-150 L378.40000000000003,-150 L378.40000000000003,-200 Z" fill="black" />
<path d="M384.9818181818182,-200 L391.56363636363636,-200 L391.56363636363636,-150 L384.9818181818182,-150 L384.9818181818182,-200 Z" fill="#f0f0f0" />
<path d="M391.56363636363636,-200 L398.1454545454545,-200 L398.1454545454545,-150 L391.56363636363636,-150 L391.56363636363636,-200 Z" fill="black" />
<path d="M398.1454545454545,-200 L404.7272727272727,-200 L404.7272727272727,-150 L398.1454545454545,-150 L398.1454545454545,-200 Z" fill="#f0f0f0" />
<path d="M404.7272727272727,-200 L411.30909090909086,-200 L411.30909090909086,-150 L404.7272727272727,-150 L404.7272727272727,-200 Z" fill="black" />
<path d="M411.30909090909086,-200 L417.890909090909,-200 L417.890909090909,-150 L411.30909090909086,-150 L411.30909090909086,-200 Z" fill="#f0f0f0" />
<path d="M417.890909090909,-200 L424.4727272727272,-200 L424.4727272727272,-150 L417.890909090909,-150 L417.890909090909,-200 Z" fill="black" />
<path d="M424.4727272727272,-200 L431.05454545454535,-200 L431.05454545454535,-150 L424.4727272727272,-150 L424.4727272727272,-200 Z" fill="#f0f0f0" />
<path d="M431.05454545454535,-200 L437.6363636363635,-200 L437.6363636363635,-150 L431.05454545454535,-150 L431.05454545454535,-200 Z" fill="black" />
<path d="M437.6363636363635,-200 L444.2181818181817,-200 L444.2181818181817,-150 L437.6363636363635,-150 L437.6363636363635,-200 Z" fill="#f0f0f0" />
<path d="M444.2181818181817,-200 L450.79999999999984,-200 L450.79999999999984,-150 L444.2181818181817,-150 L444.2181818181817,-200 Z" fill="black" />
<text x="378.40000000000003" y="-210" font-size="26" fill="black" dy="0em">CRISPR</text>
<path d="M1010.2,-200 L1301.2,-200 L1301.2,-150 L1010.2,-150 L1010.2,-200 Z" fill="white" stroke="white" stroke-width="4" />
<path d="M1010.2,-200 L1016.3914893617022,-200 L1016.3914893617022,-150 L1010.2,-150 L1010.2,-200 Z" fill="black" />
<path d="M1016.3914893617022,-200 L1022.5829787234043,-200 L1022.5829787234043,-150 L1016.3914893617022,-150 L1016.3914893617022,-200 Z" fill="#f0f0f0" />
<path d="M1022.5829787234043,-200 L1028.7744680851065,-200 L1028.7744680851065,-150 L1022.5829787234043,-150 L1022.5829787234043,-200 Z" fill="black" />
<path d="M1028.7744680851065,-200 L1034.9659574468087,-200 L1034.9659574468087,-150 L1028.7744680851065,-150 L1028.7744680851065,-200 Z" fill="#f0f0f0" />
<path d="M1034.9659574468087,-200 L1041.157446808511,-200 L1041.157446808511,-150 L1034.9659574468087,-150 L1034.9659574468087,-200 Z" fill="black" />
<path d="M1041.157446808511,-200 L1047.3489361702132,-200 L1047.3489361702132,-150 L1041.157446808511,-150 L1041.157446808511,-200 Z" fill="#f0f0f0" />
<path d="M1047.3489361702132,-200 L1053.5404255319154,-200 L1053.5404255319154,-150 L1047.3489361702132,-150 L1047.3489361702132,-200 Z" fill="black" />
<path d="M1053.5404255319154,-200 L1059.7319148936176,-200 L1059.7319148936176,-150 L1053.5404255319154,-150 L1053.5404255319154,-200 Z" fill="#f0f0f0" />
<path d="M1059.7319148936176,-200 L1065.9234042553198,-200 L1065.9234042553198,-150 L1059.7319148936176,-150 L1059.7319148936176,-200 Z" fill="black" />
<path d="M1065.9234042553198,-200 L1072.114893617022,-200 L1072.114893617022,-150 L1065.9234042553198,-150 L1065.9234042553198,-200 Z" fill="#f0f0f0" />
<path d="M1072.114893617022,-200 L1078.3063829787243,-200 L1078.3063829787243,-150 L1072.114893617022,-150 L1072.114893617022,-200 Z" fill="black" />
<path d="M1078.3063829787243,-200 L1084.4978723404265,-200 L1084.4978723404265,-150 L1078.3063829787243,-150 L1078.3063829787243,-200 Z" fill="#f0f0f0" />
<path d="M1084.4978723404265,-200 L1090.6893617021287,-200 L1090.6893617021287,-150 L1084.4978723404265,-150 L1084.4978723404265,-200 Z" fill="black" />
<path d="M1090.6893617021287,-200 L1096.880851063831,-200 L1096.880851063831,-150 L1090.6893617021287,-150 L1090.6893617021287,-200 Z" fill="#f0f0f0" />
<path d="M1096.880851063831,-200 L1103.0723404255332,-200 L1103.0723404255332,-150 L1096.880851063831,-150 L1096.880851063831,-200 Z" fill="black" />
<path d="M1103.0723404255332,-200 L1109.2638297872354,-200 L1109.2638297872354,-150 L1103.0723404255332,-150 L1103.0723404255332,-200 Z" fill="#f0f0f0" />
<path d="M1109.2638297872354,-200 L1115.4553191489376,-200 L1115.4553191489376,-150 L1109.2638297872354,-150 L1109.2638297872354,-200 Z" fill="black" />
<path d="M1115.4553191489376,-200 L1121.6468085106399,-200 L1121.6468085106399,-150 L1115.4553191489376,-150 L1115.4553191489376,-200 Z" fill="#f0f0f0" />
<path d="M1121.6468085106399,-200 L1127.838297872342,-200 L1127.838297872342,-150 L1121.6468085106399,-150 L1121.6468085106399,-200 Z" fill="black" />
<path d="M1127.838297872342,-200 L1134.0297872340443,-200 L1134.0297872340443,-150 L1127.838297872342,-150 L1127.838297872342,-200 Z" fill="#f0f0f0" />
<path d="M1134.0297872340443,-200 L1140.2212765957465,-200 L1140.2212765957465,-150 L1134.0297872340443,-150 L1134.0297872340443,-200 Z" fill="black" />
<path d="M1140.2212765957465,-200 L1146.4127659574488,-200 L1146.4127659574488,-150 L1140.2212765957465,-150 L1140.2212765957465,-200 Z" fill="#f0f0f0" />
<path d="M1146.4127659574488,-200 L1152.604255319151,-200 L1152.604255319151,-150 L1146.4127659574488,-150 L1146.4127659574488,-200 Z" fill="black" />
<path d="M1152.604255319151,-200 L1158.7957446808532,-200 L1158.7957446808532,-150 L1152.604255319151,-150 L1152.604255319151,-200 Z" fill="#f0f0f0" />
<path d="M1158.7957446808532,-200 L1164.9872340425554,-200 L1164.9872340425554,-150 L1158.7957446808532,-150 L1158.7957446808532,-200 Z" fill="black" />
<path d="M1164.9872340425554,-200 L1171.1787234042577,-200 L1171.1787234042577,-150 L1164.9872340425554,-150 L1164.9872340425554,-200 Z" fill="#f0f0f0" />
<path d="M1171.1787234042577,-200 L1177.3702127659599,-200 L1177.3702127659599,-150 L1171.1787234042577,-150 L1171.1787234042577,-200 Z" fill="black" />
<path d="M1177.3702127659599,-200 L1183.561702127662,-200 L1183.561702127662,-150 L1177.3702127659599,-150 L1177.3702127659599,-200 Z" fill="#f0f0f0" />
<path d="M1183.561702127662,-200 L1189.7531914893643,-200 L1189.7531914893643,-150 L1183.561702127662,-150 L1183.561702127662,-200 Z" fill="black" />
<path d="M1189.7531914893643,-200 L1195.9446808510666,-200 L1195.9446808510666,-150 L1189.7531914893643,-150 L1189.7531914893643,-200 Z" fill="#f0f0f0" />
<path d="M1195.9446808510666,-200 L1202.1361702127688,-200 L1202.1361702127688,-150 L1195.9446808510666,-150 L1195.9446808510666,-200 Z" fill="black" />
<path d="M1202.1361702127688,-200 L1208.327659574471,-200 L1208.327659574471,-150 L1202.1361702127688,-150 L1202.1361702127688,-200 Z" fill="#f0f0f0" />
<path d="M1208.327659574471,-200 L1214.5191489361732,-200 L1214.5191489361732,-150 L1208.327659574471,-150 L1208.327659574471,-200 Z" fill="black" />
<path d="M1214.5191489361732,-200 L1220.7106382978754,-200 L1220.7106382978754,-150 L1214.5191489361732,-150 L1214.5191489361732,-200 Z" fill="#f0f0f0" />
<path d="M1220.7106382978754,-200 L1226.9021276595777,-200 L1226.9021276595777,-150 L1220.7106382978754,-150 L1220.7106382978754,-200 Z" fill="black" />
<path d="M1226.9021276595777,-200 L1233.09361702128,-200 L1233.09361702128,-150 L1226.9021276595777,-150 L1226.9021276595777,-200 Z" fill="#f0f0f0" />
<path d="M1233.09361702128,-200 L1239.2851063829821,-200 L1239.2851063829821,-150 L1233.09361702128,-150 L1233.09361702128,-200 Z" fill="black" />
<path d="M1239.2851063829821,-200 L1245.4765957446843,-200 L1245.4765957446843,-150 L1239.2851063829821,-150 L1239.2851063829821,-200 Z" fill="#f0f0f0" />
<path d="M1245.4765957446843,-200 L1251.6680851063866,-200 L1251.6680851063866,-150 L1245.4765957446843,-150 L1245.4765957446843,-200 Z" fill="black" />
<path d="M1251.6680851063866,-200 L1257.8595744680888,-200 L1257.8595744680888,-150 L1251.6680851063866,-150 L1251.6680851063866,-200 Z" fill="#f0f0f0" />
<path d="M1257.8595744680888,-200 L1264.051063829791,-200 L1264.051063829791,-150 L1257.8595744680888,-150 L1257.8595744680888,-200 Z" fill="black" />
<path d="M1264.051063829791,-200 L1270.2425531914932,-200 L1270.2425531914932,-150 L1264.051063829791,-150 L1264.051063829791,-200 Z" fill="#f0f0f0" />
<path d="M1270.2425531914932,-200 L1276.4340425531955,-200 L1276.4340425531955,-150 L1270.2425531914932,-150 L1270.2425531914932,-200 Z" fill="black" />
<path d="M1276.4340425531955,-200 L1282.6255319148977,-200 L1282.6255319148977,-150 L1276.4340425531955,-150 L1276.4340425531955,-200 Z" fill="#f0f0f0" />
<path d="M1282.6255319148977,-200 L1288.8170212766,-200 L1288.8170212766,-150 L1282.6255319148977,-150 L1282.6255319148977,-200 Z" fill="black" />
<path d="M1288.8170212766,-200 L1295.0085106383021,-200 L1295.0085106383021,-150 L1288.8170212766,-150 L1288.8170212766,-200 Z" fill="#f0f0f0" />
<path d="M1295.0085106383021,-200 L1301.2000000000044,-200 L1301.2000000000044,-150 L1295.0085106383021,-150 L1295.0085106383021,-200 Z" fill="black" />
<text x="1010.2" y="-210" font-size="26" fill="black" dy="0em">CRISPR</text>
<text x="16.0" y="-260" font-size="38" fill="black" dy="0em">Unknown: CP000816_6 (955649-957104)</text>
</svg>